<svg xmlns="http://www.w3.org/2000/svg" width="226.33" height="64.019" viewBox="0 0 226.33 64.019">
  <g id="logo-model-electronics-texas" transform="translate(-78.778 -217.321)">
    <path id="Path_447" data-name="Path 447" d="M85.906,247.729l-7.128-.18,3.732-22.51a9.179,9.179,0,0,1,4.16-6.139,8.38,8.38,0,0,1,3.531-1.214,7.134,7.134,0,0,1,5.037,1.732,9.022,9.022,0,0,1,2.608,4.655l3.912,16.663,10.276-17.54a12.343,12.343,0,0,1,3.531-4,8.411,8.411,0,0,1,4.677-1.529,5.725,5.725,0,0,1,3.665,1.169,5.992,5.992,0,0,1,2.091,3.1,8.605,8.605,0,0,1,.225,4.025l-3.575,21.588h-7.173l3.665-21.992L109.4,241.208q-.978,1.585-1.754,2.7a16.787,16.787,0,0,1-1.687,2.024,8.467,8.467,0,0,1-2.024,1.507,6.912,6.912,0,0,1-2.5.787,6.155,6.155,0,0,1-4.835-1.911A13.1,13.1,0,0,1,94,241.185l-4.43-15.336-3.665,21.879" transform="translate(0 -0.163)" fill="#ee2f28"/>
    <path id="Path_448" data-name="Path 448" d="M292.349,240.088l2.5-15.021H268.468l-2.5,15.021h26.377m-35.259,7.421,5.015-29.93h31.662a13.2,13.2,0,0,1,2.968.315,7.066,7.066,0,0,1,2.361,1.079,8.063,8.063,0,0,1,1.867,1.934,8.9,8.9,0,0,1,1.281,2.856,8.4,8.4,0,0,1,.023,3.193l-1.844,11.154a10.471,10.471,0,0,1-1.192,3.4,13.168,13.168,0,0,1-2.518,2.924,12.641,12.641,0,0,1-3.733,2.473,12.062,12.062,0,0,1-4.318.72Z" transform="translate(-84.97 -0.123)" fill="#ee2f28"/>
    <path id="Path_449" data-name="Path 449" d="M360.341,217.45H391.4l-1.3,7.645h-34l-.585,3.508h34l-1.282,7.758-33.8.068-.539,3.171h33.8l-1.327,7.961h-31.1a12.781,12.781,0,0,1-3.081-.338,7.418,7.418,0,0,1-2.406-1.124,8.036,8.036,0,0,1-1.911-2.046,8.346,8.346,0,0,1-1.417-2.878,8.258,8.258,0,0,1-.045-3.261l1.844-10.884a11.248,11.248,0,0,1,1.35-3.867,11.933,11.933,0,0,1,2.833-3.193,10.923,10.923,0,0,1,3.643-2,15.112,15.112,0,0,1,4.273-.517" transform="translate(-127.461 -0.061)" fill="#ee2f28"/>
    <path id="Path_450" data-name="Path 450" d="M434.116,244.726a7.672,7.672,0,0,1-1.709-2.923,7.51,7.51,0,0,1-.113-3.575l3.463-20.778h7.735L439.805,239.6h33.685l-1.3,7.848H439.94a8.2,8.2,0,0,1-2.069-.293,7.528,7.528,0,0,1-1.979-.9,8.45,8.45,0,0,1-1.776-1.529" transform="translate(-168.383 -0.061)" fill="#ee2f28"/>
    <path id="Path_451" data-name="Path 451" d="M87.874,282.572H102.76l-.742,3.71h-16.3l-.337,1.686h16.3l-.742,3.755-16.213.045-.292,1.552h16.19l-.742,3.868H84.951a5.778,5.778,0,0,1-1.462-.18,3,3,0,0,1-1.146-.54,4.243,4.243,0,0,1-.877-.989,3.94,3.94,0,0,1-.607-1.394,3.852,3.852,0,0,1,.023-1.6l1.034-5.262a5.427,5.427,0,0,1,.72-1.889,5.9,5.9,0,0,1,1.394-1.552,5.666,5.666,0,0,1,1.8-.967,6.9,6.9,0,0,1,2.046-.247" transform="translate(-0.956 -31.094)" fill="#0166ff"/>
    <path id="Path_452" data-name="Path 452" d="M122.793,295.794a3.382,3.382,0,0,1-.764-1.417,3.735,3.735,0,0,1,0-1.732l1.979-10.074h3.71l-2.136,10.749H141.75l-.742,3.8H125.537a3.619,3.619,0,0,1-.989-.135,3.049,3.049,0,0,1-.944-.45,3.517,3.517,0,0,1-.81-.742" transform="translate(-20.562 -31.094)" fill="#0166ff"/>
    <path id="Path_453" data-name="Path 453" d="M170.4,282.572h14.886l-.742,3.71h-16.3l-.338,1.686h16.326l-.742,3.755-16.213.045-.315,1.552h16.213l-.765,3.868H167.478a5.771,5.771,0,0,1-1.462-.18,2.763,2.763,0,0,1-1.124-.54,4.3,4.3,0,0,1-.9-.989,3.931,3.931,0,0,1-.607-1.394,4.255,4.255,0,0,1,.023-1.6l1.034-5.262a5.9,5.9,0,0,1,.72-1.889,6.437,6.437,0,0,1,1.417-1.552,5.578,5.578,0,0,1,1.776-.967,7,7,0,0,1,2.047-.247" transform="translate(-40.287 -31.094)" fill="#0166ff"/>
    <path id="Path_454" data-name="Path 454" d="M226.74,282.658l-.72,3.62H209.515l-1.439,7.241H224.6l-.72,3.643H208.346a6.875,6.875,0,0,1-1.259-.113,2.648,2.648,0,0,1-.99-.45,4,4,0,0,1-.832-.81,4.265,4.265,0,0,1-.72-1.372,3.264,3.264,0,0,1-.023-1.552l.967-4.88a9.915,9.915,0,0,1,.337-1.3,4.954,4.954,0,0,1,.472-1.124,5.613,5.613,0,0,1,.72-1.012,5.2,5.2,0,0,1,.989-.877,5.136,5.136,0,0,1,1.236-.675,4.691,4.691,0,0,1,1.169-.292c.382-.023.877-.045,1.507-.045H226.74" transform="translate(-59.881 -31.134)" fill="#0166ff"/>
    <path id="Path_455" data-name="Path 455" d="M249.971,282.658H270.12l-.72,3.665h-8.253l-2.114,10.839h-3.62l2.069-10.794h-8.253l.742-3.71" transform="translate(-81.224 -31.134)" fill="#0166ff"/>
    <path id="Path_456" data-name="Path 456" d="M292.739,288.1h12.435l.36-1.754H293.1l-.36,1.754M290,282.7l15.494.023a3.2,3.2,0,0,1,2.069.629,4,4,0,0,1,1.214,1.822,3.7,3.7,0,0,1,.158,2.046,4.49,4.49,0,0,1-.427,1.237,6.285,6.285,0,0,1-.54.877,3.469,3.469,0,0,1-.338.427,5.073,5.073,0,0,1,.225.472,4.424,4.424,0,0,1,.248.854,3.181,3.181,0,0,1-.022,1.124l-.967,4.97h-3.665l1.079-5.442H291.929l-1.079,5.442h-3.733Z" transform="translate(-99.278 -31.155)" fill="#0166ff"/>
    <path id="Path_457" data-name="Path 457" d="M347.464,286.5H334.871l-1.372,6.994h12.57l1.394-6.994m-10.479-3.755h10.479a3.117,3.117,0,0,1,3.081,1.8,3.947,3.947,0,0,1,.517,1.327,3.722,3.722,0,0,1-.045,1.484l-1.057,5.374a4.826,4.826,0,0,1-.652,1.642,6.633,6.633,0,0,1-1.281,1.395,9.135,9.135,0,0,1-1.124.809,4.724,4.724,0,0,1-1.1.45,5.627,5.627,0,0,1-1.237.135H333.635a4.417,4.417,0,0,1-1.844-.36,3.506,3.506,0,0,1-1.259-1.192,3.1,3.1,0,0,1-.473-.944,2.825,2.825,0,0,1-.157-.967,6.018,6.018,0,0,1,.113-1.191l1.079-5.487a4.3,4.3,0,0,1,.742-1.664,8.012,8.012,0,0,1,1.462-1.417,6.092,6.092,0,0,1,1.169-.719,4.652,4.652,0,0,1,1.169-.36A6.323,6.323,0,0,1,336.985,282.744Z" transform="translate(-119.666 -31.175)" fill="#0166ff"/>
    <path id="Path_458" data-name="Path 458" d="M372.378,285.562a4.229,4.229,0,0,1,2.743-3.126,3.719,3.719,0,0,1,1.485-.338,2.992,2.992,0,0,1,1.462.36,4.18,4.18,0,0,1,1.236,1.057l7.758,9.714,2.136-10.794h3.6L390.7,293.028a5.006,5.006,0,0,1-2.609,3.665,4.251,4.251,0,0,1-1.731.427,3.238,3.238,0,0,1-2.7-1.439l-7.78-9.669-2.159,10.951-3.575-.068,2.226-11.333" transform="translate(-138.846 -30.868)" fill="#0166ff"/>
    <path id="Path_459" data-name="Path 459" d="M418.206,282.615l-2.878,14.639h-3.98l2.9-14.639h3.958" transform="translate(-158.477 -31.114)" fill="#0166ff"/>
    <path id="Path_460" data-name="Path 460" d="M446.119,282.658l-.72,3.62H428.917l-1.462,7.241h16.528l-.72,3.643H427.725a6.875,6.875,0,0,1-1.259-.113,2.491,2.491,0,0,1-.989-.45,3.525,3.525,0,0,1-.832-.81,3.851,3.851,0,0,1-.719-1.372,3.25,3.25,0,0,1-.023-1.552l.967-4.88a10,10,0,0,1,.337-1.3,4.979,4.979,0,0,1,.472-1.124,5.612,5.612,0,0,1,.72-1.012,5.214,5.214,0,0,1,.989-.877,5.586,5.586,0,0,1,1.237-.675,5.1,5.1,0,0,1,1.191-.292c.36-.023.877-.045,1.507-.045h14.8" transform="translate(-164.42 -31.134)" fill="#0166ff"/>
    <path id="Path_461" data-name="Path 461" d="M483.8,288.077a4.157,4.157,0,0,1,2.248.607,3.617,3.617,0,0,1,1.462,1.664,4.1,4.1,0,0,1,.2,2.338,5.044,5.044,0,0,1-.742,1.754,6.7,6.7,0,0,1-1.327,1.439,7.729,7.729,0,0,1-1.731.967,6.017,6.017,0,0,1-1.867.315l-16.1.068.742-3.733h17.2l.337-1.732H470.982a4.624,4.624,0,0,1-1.777-.315,3.94,3.94,0,0,1-1.372-.944,3.841,3.841,0,0,1-.787-1.462,3.92,3.92,0,0,1-.045-1.776,4.728,4.728,0,0,1,.81-1.822,5.311,5.311,0,0,1,1.484-1.439,7.01,7.01,0,0,1,1.889-.922,6.462,6.462,0,0,1,2.046-.315l15.493-.113L488,286.3l-16.91.022-.337,1.754H483.8" transform="translate(-184.493 -31.134)" fill="#0166ff"/>
    <path id="Path_462" data-name="Path 462" d="M85.906,247.729l-7.128-.18,3.732-22.51a8.543,8.543,0,0,1,1.417-3.485A9.086,9.086,0,0,1,86.67,218.9a8.275,8.275,0,0,1,3.531-1.214,7.172,7.172,0,0,1,5.037,1.732,8.932,8.932,0,0,1,2.608,4.655l3.912,16.663,10.276-17.54a12.089,12.089,0,0,1,3.531-4,8.353,8.353,0,0,1,4.677-1.529,5.725,5.725,0,0,1,3.665,1.169,5.992,5.992,0,0,1,2.091,3.1,8.605,8.605,0,0,1,.225,4.025l-3.575,21.588h-7.173l3.665-21.992L109.4,241.208q-.978,1.585-1.754,2.7a14.925,14.925,0,0,1-1.687,2.024,8.467,8.467,0,0,1-2.024,1.507,6.912,6.912,0,0,1-2.5.787,6.155,6.155,0,0,1-4.835-1.911A13.1,13.1,0,0,1,94,241.185l-4.43-15.336-3.665,21.879" transform="translate(0 -0.163)" fill="#fe0000"/>
    <path id="Path_463" data-name="Path 463" d="M292.349,240.088l2.5-15.021H268.468l-2.5,15.021h26.377m-35.259,7.421,5.015-29.93h31.662a13.2,13.2,0,0,1,2.968.315,7.066,7.066,0,0,1,2.361,1.079,8.074,8.074,0,0,1,1.867,1.934,8.687,8.687,0,0,1,1.281,2.856,8.391,8.391,0,0,1,.023,3.193l-1.844,11.154a9.969,9.969,0,0,1-1.192,3.4,13.168,13.168,0,0,1-2.518,2.924,12.641,12.641,0,0,1-3.733,2.473,12.062,12.062,0,0,1-4.318.72Z" transform="translate(-84.97 -0.123)" fill="#fe0000"/>
    <path id="Path_464" data-name="Path 464" d="M360.341,217.45H391.4l-1.3,7.645h-34l-.585,3.508h34.023l-1.3,7.758-33.8.068-.539,3.171h33.8l-1.327,7.961h-31.1a12.781,12.781,0,0,1-3.081-.338,7.181,7.181,0,0,1-2.406-1.124,7.676,7.676,0,0,1-1.911-2.046,8.158,8.158,0,0,1-1.417-2.878,8.247,8.247,0,0,1-.045-3.261l1.844-10.884a11.248,11.248,0,0,1,1.35-3.867,12.282,12.282,0,0,1,2.833-3.193,10.923,10.923,0,0,1,3.643-2,15.112,15.112,0,0,1,4.273-.517" transform="translate(-127.461 -0.061)" fill="#fe0000"/>
    <path id="Path_465" data-name="Path 465" d="M434.118,244.726a7.331,7.331,0,0,1-1.687-2.923,7.214,7.214,0,0,1-.135-3.575l3.463-20.778h7.735L439.807,239.6h33.685l-1.3,7.848H439.942a8.343,8.343,0,0,1-2.069-.293,8.253,8.253,0,0,1-1.979-.9,9.053,9.053,0,0,1-1.776-1.529" transform="translate(-168.384 -0.061)" fill="#fe0000"/>
    <path id="Path_466" data-name="Path 466" d="M87.874,282.572H102.76l-.742,3.71h-16.3l-.337,1.686h16.3l-.742,3.755-16.213.045-.292,1.552h16.19l-.742,3.868H84.951a5.778,5.778,0,0,1-1.462-.18,2.5,2.5,0,0,1-1.124-.54,3.515,3.515,0,0,1-.9-.989,3.94,3.94,0,0,1-.607-1.394,3.852,3.852,0,0,1,.023-1.6l1.034-5.262a5.427,5.427,0,0,1,.72-1.889,5.9,5.9,0,0,1,1.394-1.552,5.666,5.666,0,0,1,1.8-.967,6.9,6.9,0,0,1,2.046-.247" transform="translate(-0.956 -31.094)" fill="#0166ff"/>
    <path id="Path_467" data-name="Path 467" d="M122.793,295.794a3.382,3.382,0,0,1-.764-1.417,3.735,3.735,0,0,1,0-1.732l1.979-10.074h3.71l-2.136,10.749H141.75l-.742,3.8H125.537a3.741,3.741,0,0,1-.989-.135,2.358,2.358,0,0,1-.922-.45,3.594,3.594,0,0,1-.832-.742" transform="translate(-20.562 -31.094)" fill="#0166ff"/>
    <path id="Path_468" data-name="Path 468" d="M170.4,282.572h14.886l-.72,3.71H168.243l-.315,1.686h16.3l-.742,3.755-16.213.045-.315,1.552h16.213l-.765,3.868H167.5a5.823,5.823,0,0,1-1.484-.18,2.5,2.5,0,0,1-1.124-.54,3.884,3.884,0,0,1-.9-.989,4.384,4.384,0,0,1-.607-1.394,4.255,4.255,0,0,1,.023-1.6l1.057-5.262a5.4,5.4,0,0,1,.7-1.889,6.437,6.437,0,0,1,1.417-1.552,5.578,5.578,0,0,1,1.776-.967,7,7,0,0,1,2.047-.247" transform="translate(-40.287 -31.094)" fill="#0166ff"/>
    <path id="Path_469" data-name="Path 469" d="M226.74,282.658l-.7,3.62H209.515l-1.439,7.241H224.6l-.72,3.643H208.346a5.456,5.456,0,0,1-1.259-.113,2.648,2.648,0,0,1-.99-.45,4,4,0,0,1-.832-.81,4.765,4.765,0,0,1-.72-1.372,3.264,3.264,0,0,1-.023-1.552l.967-4.88a9.915,9.915,0,0,1,.337-1.3,8.42,8.42,0,0,1,.472-1.124,5.613,5.613,0,0,1,.72-1.012,5.2,5.2,0,0,1,.989-.877,5.136,5.136,0,0,1,1.236-.675,4.944,4.944,0,0,1,1.169-.292c.382-.023.877-.045,1.507-.045H226.74" transform="translate(-59.881 -31.134)" fill="#0166ff"/>
    <path id="Path_470" data-name="Path 470" d="M249.971,282.658h20.171l-.72,3.665h-8.275l-2.114,10.839h-3.62l2.091-10.794h-8.275l.742-3.71" transform="translate(-81.224 -31.134)" fill="#0166ff"/>
    <path id="Path_471" data-name="Path 471" d="M292.759,288.1h12.458l.337-1.754H293.119l-.36,1.754m-2.744-5.4,15.494.023a3.2,3.2,0,0,1,2.069.629,4.221,4.221,0,0,1,1.236,1.822,3.92,3.92,0,0,1,.135,2.046,4.491,4.491,0,0,1-.427,1.237,4.688,4.688,0,0,1-.54.877c-.158.2-.27.36-.338.427a5.063,5.063,0,0,1,.225.472,3.99,3.99,0,0,1,.248.854,2.73,2.73,0,0,1-.023,1.124l-.967,4.97h-3.643l1.057-5.442H291.95l-1.057,5.442H287.16Z" transform="translate(-99.299 -31.155)" fill="#0166ff"/>
    <path id="Path_472" data-name="Path 472" d="M347.464,286.5H334.871l-1.372,6.994h12.57l1.394-6.994m-10.479-3.755h10.479a3.117,3.117,0,0,1,3.081,1.8,3.776,3.776,0,0,1,.517,1.327,3.722,3.722,0,0,1-.045,1.484l-1.057,5.374a4.826,4.826,0,0,1-.652,1.642,6.633,6.633,0,0,1-1.281,1.395,7.7,7.7,0,0,1-1.124.809,4.356,4.356,0,0,1-1.1.45,5.426,5.426,0,0,1-1.214.135H333.635a3.926,3.926,0,0,1-1.822-.36,3.39,3.39,0,0,1-1.281-1.192,3.716,3.716,0,0,1-.473-.944,3.366,3.366,0,0,1-.157-.967,6.018,6.018,0,0,1,.113-1.191l1.1-5.487a3.961,3.961,0,0,1,.72-1.664,7.521,7.521,0,0,1,1.484-1.417,6.42,6.42,0,0,1,1.147-.719,5.8,5.8,0,0,1,1.169-.36A8.224,8.224,0,0,1,336.985,282.744Z" transform="translate(-119.666 -31.175)" fill="#0166ff"/>
    <path id="Path_473" data-name="Path 473" d="M372.378,285.562a4.266,4.266,0,0,1,2.743-3.126,3.719,3.719,0,0,1,1.485-.338,2.992,2.992,0,0,1,1.462.36,4.18,4.18,0,0,1,1.236,1.057l7.758,9.714,2.136-10.794h3.6L390.7,293.028a5.006,5.006,0,0,1-2.609,3.665,4.167,4.167,0,0,1-1.731.427,3.267,3.267,0,0,1-2.7-1.439l-7.78-9.669-2.159,10.951-3.575-.068,2.226-11.333" transform="translate(-138.846 -30.868)" fill="#0166ff"/>
    <path id="Path_474" data-name="Path 474" d="M418.206,282.615l-2.878,14.639h-3.98l2.9-14.639h3.958" transform="translate(-158.477 -31.114)" fill="#0166ff"/>
    <path id="Path_475" data-name="Path 475" d="M446.119,282.658l-.72,3.62H428.917l-1.462,7.241h16.528l-.72,3.643H427.725a5.339,5.339,0,0,1-1.259-.113,2.642,2.642,0,0,1-.989-.45,4.007,4.007,0,0,1-.832-.81,3.851,3.851,0,0,1-.719-1.372,3.25,3.25,0,0,1-.023-1.552l.967-4.88a10,10,0,0,1,.337-1.3,4.979,4.979,0,0,1,.472-1.124,5.612,5.612,0,0,1,.72-1.012,5.214,5.214,0,0,1,.989-.877,5.586,5.586,0,0,1,1.237-.675,5.1,5.1,0,0,1,1.191-.292c.36-.023.877-.045,1.507-.045h14.8" transform="translate(-164.42 -31.134)" fill="#0166ff"/>
    <path id="Path_476" data-name="Path 476" d="M483.8,288.077a4.157,4.157,0,0,1,2.248.607,3.617,3.617,0,0,1,1.462,1.664,4.078,4.078,0,0,1,.2,2.338,5.044,5.044,0,0,1-.742,1.754,6.7,6.7,0,0,1-1.327,1.439,7.729,7.729,0,0,1-1.731.967,6.017,6.017,0,0,1-1.867.315l-16.1.068.742-3.733h17.2l.337-1.732H470.982a4.624,4.624,0,0,1-1.777-.315,3.94,3.94,0,0,1-1.372-.944,3.841,3.841,0,0,1-.787-1.462,3.92,3.92,0,0,1-.045-1.776,4.728,4.728,0,0,1,.81-1.822,5.642,5.642,0,0,1,1.484-1.439,6.7,6.7,0,0,1,1.889-.922,7.172,7.172,0,0,1,2.046-.315l15.493-.113L488,286.3l-16.91.022-.337,1.754H483.8" transform="translate(-184.493 -31.134)" fill="#0b5daa"/>
    <g id="Group_537" data-name="Group 537" transform="translate(265.605 269.12)">
      <path id="Path_477" data-name="Path 477" d="M452.188,316.772q.675,0,.675.517a1.311,1.311,0,0,1-.034.27l-.3,1.124a.988.988,0,0,1-1.057.787h-5.9l-2.2,8.21a.971.971,0,0,1-1.046.787h-1.124q-.675,0-.675-.517a1.319,1.319,0,0,1,.034-.27l2.2-8.21h-5.9q-.675,0-.675-.506a1.046,1.046,0,0,1,.044-.282l.3-1.124a.971.971,0,0,1,1.046-.787Z" transform="translate(-435.911 -316.51)" fill="#fe0000"/>
      <path id="Path_478" data-name="Path 478" d="M442.075,328.492h-1.124c-.845,0-.936-.545-.936-.779a1.558,1.558,0,0,1,.039-.325l2.119-7.894h-5.563c-.845,0-.936-.537-.936-.767a1.292,1.292,0,0,1,.055-.353l.3-1.121a1.225,1.225,0,0,1,1.3-.981h14.62c.845,0,.937.545.937.779a1.554,1.554,0,0,1-.04.325l-.307,1.138a1.243,1.243,0,0,1-1.31.98h-5.7l-2.153,8.017A1.225,1.225,0,0,1,442.075,328.492Zm-4.746-11.7a.714.714,0,0,0-.793.59l-.3,1.128a.8.8,0,0,0-.036.213c0,.1,0,.244.413.244h6.246l-2.293,8.54a1.019,1.019,0,0,0-.025.2c0,.1,0,.255.413.255h1.124a.714.714,0,0,0,.793-.591l2.257-8.407h6.105a.73.73,0,0,0,.805-.594l.3-1.124a1.055,1.055,0,0,0,.025-.2c0-.1,0-.255-.414-.255Z" transform="translate(-435.673 -316.272)" fill="#fe0000"/>
    </g>
    <g id="Group_538" data-name="Group 538" transform="translate(280.12 269.12)">
      <path id="Path_479" data-name="Path 479" d="M476.044,323.351a7.449,7.449,0,0,1-1.158.832l-6.287,4.285h-3.576l8.581-5.848-5.455-5.848h3.576l3.993,4.285a3.024,3.024,0,0,1,.708.832,7.537,7.537,0,0,1,1.158-.832l6.287-4.285h3.576l-8.581,5.848,5.455,5.848h-3.576l-3.993-4.285A3,3,0,0,1,476.044,323.351Z" transform="translate(-464.173 -316.51)" fill="#fe0000"/>
      <path id="Path_480" data-name="Path 480" d="M484.151,328.492h-4.293l-4.071-4.368a4.112,4.112,0,0,1-.577-.613,9.66,9.66,0,0,1-.961.658l-6.343,4.323H463.4l9.031-6.155-5.657-6.066h4.293l4.07,4.368a4.157,4.157,0,0,1,.578.613,9.558,9.558,0,0,1,.96-.658l6.343-4.324h4.506l-9.031,6.155Zm-4.065-.523h2.86l-5.252-5.631,8.132-5.542H483.18l-6.22,4.24a7.4,7.4,0,0,0-1.127.807l-.259.243-.155-.32a2.776,2.776,0,0,0-.648-.752l-3.932-4.218h-2.86l5.252,5.631-8.132,5.542h2.647l6.22-4.24a7.323,7.323,0,0,0,1.126-.807l.26-.244.155.321a2.8,2.8,0,0,0,.648.751Z" transform="translate(-463.401 -316.272)" fill="#fe0000"/>
    </g>
    <rect id="Rectangle_96" data-name="Rectangle 96" width="181.981" height="3.171" transform="translate(80.622 268.996)" fill="#fe0000"/>
    <g id="Group_540" data-name="Group 540" transform="translate(127.654 217.321)">
      <path id="Path_481" data-name="Path 481" d="M186.229,217.321h21.834a7.631,7.631,0,0,1,3.868.9,7.748,7.748,0,0,1,2.7,2.811,8.118,8.118,0,0,1,1.169,2.743,8.22,8.22,0,0,1-.023,3.058l-1.844,11.086a8.8,8.8,0,0,1-1.237,3.373,12.422,12.422,0,0,1-2.563,2.878,15.544,15.544,0,0,1-2.271,1.664,10.154,10.154,0,0,1-2.294.9,11.722,11.722,0,0,1-2.541.27H180.2a8.564,8.564,0,0,1-3.845-.742,6.755,6.755,0,0,1-2.744-2.406,7.5,7.5,0,0,1-1.057-1.934,7.349,7.349,0,0,1-.4-2,12.458,12.458,0,0,1,.18-2.451l1.889-11.311a8.065,8.065,0,0,1,1.394-3.441,16.387,16.387,0,0,1,3.013-2.946,13.093,13.093,0,0,1,2.384-1.462,11.534,11.534,0,0,1,2.406-.765A17.408,17.408,0,0,1,186.229,217.321Zm-5.348,13.934a9.944,9.944,0,0,0,.862.77c.3.247.608.488.906.74a7.294,7.294,0,0,1,.885.877,1.843,1.843,0,0,1,.407.8c.055.258.063.521.107.779a1.5,1.5,0,0,0,.591,1.016,16.153,16.153,0,0,0,1.44.912,2.751,2.751,0,0,0,.538.254.942.942,0,0,0,1.007-.235,3.376,3.376,0,0,0,.52-.688,1.386,1.386,0,0,1,.5-.5,1.546,1.546,0,0,1,.705-.183,3.255,3.255,0,0,1,.553.066,1.038,1.038,0,0,1,.671.418,3.258,3.258,0,0,0,.738.714,4.344,4.344,0,0,1,.929.844,12.783,12.783,0,0,1,1.2,1.716c.242.388.464.79.723,1.167a4.137,4.137,0,0,1,.651,1.424,4.884,4.884,0,0,0,.212.719,1.738,1.738,0,0,0,.833.94c.238.122.475.244.723.344a7.344,7.344,0,0,0,1.952.617h.458c.119-.012.151-.093.152-.2a.874.874,0,0,0-.064-.322c-.137-.356-.325-.69-.466-1.044a1.949,1.949,0,0,1-.208-1.089,1.583,1.583,0,0,1,.209-.581,3.356,3.356,0,0,0,.534-1.1,1.135,1.135,0,0,1,.143-.351,1.313,1.313,0,0,1,.554-.452c.3-.159.237-.074.445-.346a2.839,2.839,0,0,1,.3-.334l2.477,1.715-.742-2.588a7.68,7.68,0,0,0,.814-.462,2.35,2.35,0,0,0,.435-.59c.118-.191.226-.388.355-.572a.64.64,0,0,1,.355-.271c.164-.048.332-.064.5-.1a.763.763,0,0,0,.605-.369c.1-.214.221-.419.343-.623a3.306,3.306,0,0,1,.517-.705.885.885,0,0,0,.277-.644c.02-.493-.059-.98-.07-1.472a1.174,1.174,0,0,0-.078-.372,2.816,2.816,0,0,0-.566-.943,1.944,1.944,0,0,1-.462-1.312c-.021-.665-.051-1.331-.035-2,0-.187,0-.374,0-.56a.312.312,0,0,0-.217-.324,2.018,2.018,0,0,0-.375-.12,2.5,2.5,0,0,1-.894-.35,1.522,1.522,0,0,0-.581-.215,5.237,5.237,0,0,0-.937-.05,1.057,1.057,0,0,0-.324.062c-.313.108-.6.279-.912.385a.633.633,0,0,1-.6.008,1.746,1.746,0,0,1-.278-.26.533.533,0,0,0-.546-.157c-.205.051-.411.1-.615.157a.6.6,0,0,1-.336,0,3.914,3.914,0,0,0-.707-.151,1.564,1.564,0,0,1-.71-.163,1.517,1.517,0,0,0-.335-.115c-.22-.071-.451-.075-.674-.126a.939.939,0,0,1-.416-.175c-.095-.078-.182-.166-.281-.238a1.1,1.1,0,0,0-.768-.249.769.769,0,0,1-.511-.145c-.2-.126-.386-.262-.583-.385a.385.385,0,0,1-.2-.372c.008-1.333,0-2.666,0-4,0-.2-.007-.206-.208-.206h-6.036c-.3,0-.3,0-.3.3v9.868c0,.206,0,.206-.2.206h-6.125c-.075,0-.155-.014-.215.052v.127A1.515,1.515,0,0,0,180.881,231.255Z" transform="translate(-172.147 -217.321)" fill="#fe0000"/>
      <g id="Group_539" data-name="Group 539" transform="translate(20.264 10.358)">
        <path id="Path_482" data-name="Path 482" d="M214.418,244.323l-3.56-2.982,4.4.031,1.577-4.263,1.437,4.278,4.372-.031-3.482,2.967,1.234,4.263-3.607-2.5-3.654,2.53Z" transform="translate(-210.857 -237.109)" fill="#fe0000"/>
      </g>
    </g>
  </g>
</svg>
