<?xml version="1.0" encoding="utf-8"?>
<!-- Generator: Adobe Illustrator 24.2.1, SVG Export Plug-In . SVG Version: 6.00 Build 0)  -->
<svg version="1.1" xmlns="http://www.w3.org/2000/svg" xmlns:xlink="http://www.w3.org/1999/xlink" x="0px" y="0px"
	 viewBox="0 0 129 48" style="enable-background:new 0 0 129 48;" xml:space="preserve">
<style type="text/css">
	.st0{display:none;}
	.st1{display:inline;fill:#20221D;stroke:#FFFFFF;stroke-miterlimit:10;}
	.st2{fill:#FFFFFF;}
	.st3{enable-background:new    ;}
	.st4{fill-rule:evenodd;clip-rule:evenodd;fill:#FFFFFF;}
</style>
<g id="Layer_2" class="st0">
	<rect x="-19.7" y="-9.6" class="st1" width="178.6" height="74.3"/>
</g>
<g id="Layer_1">
	<g id="Group_55" transform="translate(-0.445)">
		<g id="Group_53">
			<g id="Ellipse_2" transform="translate(0.445)">
				<g>
					<path class="st2" d="M24,48C10.8,48,0,37.2,0,24S10.8,0,24,0s24,10.8,24,24S37.2,48,24,48z M24,3C12.4,3,3,12.4,3,24
						c0,11.6,9.4,21,21,21s21-9.4,21-21C45,12.4,35.6,3,24,3z"/>
				</g>
			</g>
			<g class="st3">
				<path class="st2" d="M21.9,28.6c0.5,0.5,1.1,0.9,1.8,1v-5c-0.1,0-0.2-0.1-0.3-0.1c-0.1,0-0.3-0.1-0.4-0.1
					c-0.6-0.2-1.2-0.3-1.8-0.6c-0.6-0.2-1.1-0.5-1.5-0.9c-0.5-0.4-0.8-0.8-1.1-1.3c-0.3-0.5-0.4-1.2-0.4-2c0-0.8,0.2-1.5,0.5-2.2
					s0.7-1.1,1.2-1.6s1.1-0.8,1.8-1c0.7-0.2,1.4-0.4,2.1-0.4v-1.8h1.4v1.8c0.7,0.1,1.4,0.2,2,0.5c0.6,0.2,1.2,0.6,1.7,1
					s0.9,0.9,1.2,1.5c0.3,0.6,0.5,1.3,0.5,2.2h-3.4c0-0.6-0.2-1.2-0.6-1.6c-0.4-0.4-0.8-0.7-1.4-0.7v4.2c0.2,0,0.4,0.1,0.6,0.1
					c0.2,0,0.4,0.1,0.6,0.2c1.2,0.3,2.1,0.7,2.7,1.2c0.6,0.5,1.1,1,1.4,1.5c0.3,0.5,0.5,1,0.5,1.5c0.1,0.5,0.1,1,0.1,1.4
					c0,0.4-0.1,0.8-0.3,1.3c-0.2,0.5-0.5,1.1-0.9,1.6c-0.5,0.5-1.1,1-1.8,1.4s-1.8,0.6-3,0.7v2h-1.4v-2c-1.8-0.1-3.2-0.7-4.2-1.7
					c-1-1-1.6-2.4-1.8-4.3h3.4C21.1,27.3,21.4,28.1,21.9,28.6z M22.9,17.4c-0.3,0.1-0.5,0.2-0.7,0.4s-0.4,0.4-0.5,0.6
					c-0.1,0.2-0.2,0.5-0.2,0.9c0,0.5,0.2,0.9,0.5,1.2c0.3,0.3,0.9,0.5,1.7,0.7v-3.9C23.5,17.3,23.2,17.3,22.9,17.4z M26,29.4
					c0.3-0.1,0.6-0.3,0.8-0.4c0.2-0.2,0.5-0.4,0.6-0.7c0.2-0.3,0.2-0.6,0.2-1c0-0.6-0.2-1.1-0.6-1.4c-0.4-0.3-1.1-0.6-2-0.9v4.6
					C25.4,29.6,25.7,29.5,26,29.4z"/>
			</g>
		</g>
		<g id="Group_54" transform="translate(81)">
			<g id="Ellipse_2-2" transform="translate(0.445)">
				<g>
					<path class="st2" d="M24,48C10.8,48,0,37.2,0,24S10.8,0,24,0s24,10.8,24,24S37.2,48,24,48z M24,3C12.4,3,3,12.4,3,24
						c0,11.6,9.4,21,21,21s21-9.4,21-21C45,12.4,35.6,3,24,3z"/>
				</g>
			</g>
			<g class="st3">
				<path class="st2" d="M21.9,28.6c0.5,0.5,1.1,0.9,1.8,1v-5c-0.1,0-0.2-0.1-0.3-0.1c-0.1,0-0.3-0.1-0.4-0.1
					c-0.6-0.2-1.2-0.3-1.8-0.6s-1.1-0.5-1.5-0.9c-0.5-0.4-0.8-0.8-1.1-1.3c-0.3-0.5-0.4-1.2-0.4-2c0-0.8,0.2-1.5,0.5-2.2
					c0.3-0.6,0.7-1.1,1.2-1.6c0.5-0.4,1.1-0.8,1.8-1c0.7-0.2,1.4-0.4,2.1-0.4v-1.8h1.4v1.8c0.7,0.1,1.4,0.2,2,0.5
					c0.6,0.2,1.2,0.6,1.7,1c0.5,0.4,0.9,0.9,1.2,1.5c0.3,0.6,0.5,1.3,0.5,2.2h-3.4c0-0.6-0.2-1.2-0.6-1.6c-0.4-0.4-0.8-0.7-1.4-0.7
					v4.2c0.2,0,0.4,0.1,0.6,0.1c0.2,0,0.4,0.1,0.6,0.2c1.2,0.3,2.1,0.7,2.7,1.2c0.6,0.5,1.1,1,1.4,1.5c0.3,0.5,0.5,1,0.5,1.5
					c0.1,0.5,0.1,1,0.1,1.4c0,0.4-0.1,0.8-0.3,1.3c-0.2,0.5-0.5,1.1-0.9,1.6c-0.5,0.5-1.1,1-1.8,1.4c-0.8,0.4-1.8,0.6-3,0.7v2h-1.4
					v-2c-1.8-0.1-3.2-0.7-4.2-1.7c-1-1-1.6-2.4-1.8-4.3h3.4C21.1,27.3,21.4,28.1,21.9,28.6z M22.9,17.4c-0.3,0.1-0.5,0.2-0.7,0.4
					s-0.4,0.4-0.5,0.6s-0.2,0.5-0.2,0.9c0,0.5,0.2,0.9,0.5,1.2c0.3,0.3,0.9,0.5,1.7,0.7v-3.9C23.5,17.3,23.2,17.3,22.9,17.4z
					 M26,29.4c0.3-0.1,0.6-0.3,0.8-0.4c0.2-0.2,0.5-0.4,0.6-0.7s0.2-0.6,0.2-1c0-0.6-0.2-1.1-0.6-1.4c-0.4-0.3-1.1-0.6-2-0.9v4.6
					C25.4,29.6,25.7,29.5,26,29.4z"/>
			</g>
		</g>
		<g id="arrow-both" transform="translate(53.608 18)">
			<g id="Path_48">
				<path class="st4" d="M2.6,6.5l3.6,3.6l-1.2,1.2L0,6.2V5.1L5.1,0l1.2,1.2L2.6,4.8h16.8l-3.6-3.6L17,0l5.1,5.1v1.2L17,11.3
					l-1.2-1.2l3.6-3.6L2.6,6.5z"/>
			</g>
		</g>
	</g>
</g>
</svg>
