<svg xmlns="http://www.w3.org/2000/svg" width="13.5" height="13.5" viewBox="0 0 13.5 13.5">
  <path id="icon-list-bullet-blue" d="M9.556,5.222h7.222a.722.722,0,0,1,0,1.444H9.556a.722.722,0,1,1,0-1.444Zm0,5.056h7.222a.722.722,0,0,1,0,1.444H9.556a.722.722,0,1,1,0-1.444Zm0,5.056h7.222a.722.722,0,0,1,0,1.444H9.556a.722.722,0,1,1,0-1.444ZM5.944,7.389A1.444,1.444,0,1,1,7.389,5.944,1.444,1.444,0,0,1,5.944,7.389Zm0,5.056A1.444,1.444,0,1,1,7.389,11,1.444,1.444,0,0,1,5.944,12.444Zm0,5.056a1.444,1.444,0,1,1,1.444-1.444A1.444,1.444,0,0,1,5.944,17.5Z" transform="translate(-4.25 -4.25)" fill="#0166ff" stroke="#0166ff" stroke-width="0.5" fill-rule="evenodd"/>
</svg>
