<svg xmlns="http://www.w3.org/2000/svg" width="30" height="29.93" viewBox="0 0 30 29.93">
  <path id="close-circle-o" d="M18.9,9.243l2.108,2.108-3.935,3.864,3.935,3.864L18.9,21.187l-3.935-3.864L11.1,21.187,8.993,19.079l3.864-3.864L8.993,11.351,11.1,9.243l3.864,3.864ZM15,.25A14.454,14.454,0,0,1,25.609,4.641,14.414,14.414,0,0,1,30,15.215a14.414,14.414,0,0,1-4.391,10.574A14.454,14.454,0,0,1,15,30.18,14.454,14.454,0,0,1,4.392,25.789,14.417,14.417,0,0,1,0,15.215,14.409,14.409,0,0,1,4.391,4.641,14.457,14.457,0,0,1,15,.25Zm0,26.979a11.539,11.539,0,0,0,8.466-3.513,11.58,11.58,0,0,0,3.513-8.5,11.58,11.58,0,0,0-3.513-8.5A11.539,11.539,0,0,0,15,3.2,11.539,11.539,0,0,0,6.534,6.714a11.58,11.58,0,0,0-3.513,8.5,11.58,11.58,0,0,0,3.513,8.5A11.539,11.539,0,0,0,15,27.229Z" transform="translate(0 -0.25)" fill="#c40000"/>
</svg>
