<svg xmlns="http://www.w3.org/2000/svg" width="22.5" height="31.5" viewBox="0 0 22.5 31.5">
  <g id="document" transform="translate(-6.75 -2.251)">
    <path id="Path_300" data-name="Path 300" d="M28.912,10.463,21.037,2.588a1.021,1.021,0,0,0-.787-.337H9A2.256,2.256,0,0,0,6.75,4.5v27A2.256,2.256,0,0,0,9,33.751H27a2.256,2.256,0,0,0,2.25-2.25V11.25a1.022,1.022,0,0,0-.337-.787ZM20.25,4.95l6.3,6.3h-6.3ZM27,31.5H9V4.5h9v6.75a2.256,2.256,0,0,0,2.25,2.25H27Z" fill="#fff"/>
    <path id="Path_301" data-name="Path 301" d="M11.25,24.75h13.5V27H11.25Z" fill="#fff"/>
    <path id="Path_302" data-name="Path 302" d="M11.25,18h13.5v2.25H11.25Z" fill="#fff"/>
  </g>
</svg>
