<svg xmlns="http://www.w3.org/2000/svg" width="13.674" height="13.674" viewBox="0 0 13.674 13.674">
  <path id="phone" d="M13.674,10.8a3.206,3.206,0,0,1-.1.685,3.854,3.854,0,0,1-.2.665,2.6,2.6,0,0,1-1.185,1.029,3.765,3.765,0,0,1-1.806.5,3.876,3.876,0,0,1-.515-.034,3.938,3.938,0,0,1-.558-.122q-.306-.088-.457-.141t-.539-.2q-.388-.146-.476-.175a8.792,8.792,0,0,1-1.7-.806,14.642,14.642,0,0,1-2.564-2.1,14.642,14.642,0,0,1-2.1-2.564,8.806,8.806,0,0,1-.806-1.7Q.641,5.75.5,5.361T.3,4.822q-.054-.15-.141-.457a4.025,4.025,0,0,1-.122-.558A3.787,3.787,0,0,1,0,3.292,3.767,3.767,0,0,1,.5,1.486,2.6,2.6,0,0,1,1.525.3,3.868,3.868,0,0,1,2.19.1,3.2,3.2,0,0,1,2.875,0a.542.542,0,0,1,.2.029q.175.058.515.738.107.185.291.525t.34.617q.155.277.3.52.029.039.17.243a2.765,2.765,0,0,1,.209.345.627.627,0,0,1,.068.277.806.806,0,0,1-.277.485,4.744,4.744,0,0,1-.6.534,5.861,5.861,0,0,0-.6.515.74.74,0,0,0-.277.447.655.655,0,0,0,.049.218q.049.131.082.2t.136.233q.1.165.112.185a10.192,10.192,0,0,0,1.69,2.282,10.192,10.192,0,0,0,2.282,1.69q.019.01.185.112t.233.136a2.039,2.039,0,0,0,.2.082.668.668,0,0,0,.218.049.74.74,0,0,0,.447-.277,5.861,5.861,0,0,0,.515-.6,4.744,4.744,0,0,1,.534-.6.806.806,0,0,1,.485-.277.634.634,0,0,1,.277.068A2.7,2.7,0,0,1,11,8.979q.2.141.243.17.243.146.52.3t.617.34q.34.185.525.291.68.34.738.515a.542.542,0,0,1,.029.2Z" fill="#fff"/>
</svg>
