<svg xmlns="http://www.w3.org/2000/svg" width="40.583" height="62.574" viewBox="0 0 40.583 62.574">
  <g id="icon-lightbulb" transform="translate(-7.375 -1.75)">
    <path id="Path_275" data-name="Path 275" d="M47.458,21.616c0-10.692-9.086-19.366-19.792-19.366S7.875,10.923,7.875,21.629c0,4.261,1.814,8.108,4.15,11.408h-.041a70.351,70.351,0,0,1,4.33,6.185,20.416,20.416,0,0,1,2.57,11.214v.192H36.477v-.192a19.819,19.819,0,0,1,2.529-11.214,69.936,69.936,0,0,1,4.33-6.185h-.014C45.644,29.738,47.458,25.891,47.458,21.616Zm-6.734,11.2c-.082.109-.151.205-.235.317a54.289,54.289,0,0,0-3.4,4.961,21.317,21.317,0,0,0-2.86,10.321h-2.17V33.037l4.4-8.8H34.182l-4.316,8.8V48.431h-4.4V33.037l-4.316-8.8H18.87l4.4,8.8V48.431H21.083A21.757,21.757,0,0,0,18.21,38.123a28.567,28.567,0,0,0-1.882-2.887h.027L13.8,31.718A17.485,17.485,0,0,1,10.074,21.6,17.494,17.494,0,0,1,15.516,9.451a17.159,17.159,0,0,1,24.3,0A17.487,17.487,0,0,1,45.259,21.6a17.458,17.458,0,0,1-3.724,10.1l-.811,1.114Z" fill="#fff" stroke="#fff" stroke-width="1"/>
    <path id="Path_276" data-name="Path 276" d="M15.75,32.625h8.8v2.2h-8.8Z" transform="translate(7.519 29)" fill="#fff" stroke="#fff" stroke-width="1"/>
    <path id="Path_277" data-name="Path 277" d="M14.625,30.375H27.819v2.2H14.625Z" transform="translate(6.444 26.852)" fill="#fff" stroke="#fff" stroke-width="1"/>
    <path id="Path_278" data-name="Path 278" d="M14.625,28.125H27.819v2.2H14.625Z" transform="translate(6.444 24.704)" fill="#fff" stroke="#fff" stroke-width="1"/>
  </g>
</svg>
