<?xml version="1.0" encoding="utf-8"?>
<!-- Generator: Adobe Illustrator 24.2.1, SVG Export Plug-In . SVG Version: 6.00 Build 0)  -->
<svg version="1.1" id="Layer_1" xmlns="http://www.w3.org/2000/svg" xmlns:xlink="http://www.w3.org/1999/xlink" x="0px" y="0px"
	 viewBox="0 0 93.4 48.2" style="enable-background:new 0 0 93.4 48.2;" xml:space="preserve">
<style type="text/css">
	.st0{fill:#FFFFFF;}
</style>
<g id="truck-line">
	<path class="st0" d="M85.3,12h-8V2c0-1.1-0.9-2-2-2l0,0H31.2c-1.1,0-2,0.9-2,2v36.1c0,1.1,0.9,2,2,2l0,0h2V4h40.1v23.5
		c1-0.3,2.1-0.4,3.1-0.4h0.9v-11h8c2.2,0,4,1.8,4,4l0,0v2h-8v4h8v10h-4.8c-2-4.6-7.3-6.8-12-4.8c-2.1,0.9-3.8,2.6-4.8,4.8H54.1
		c-1.4-3.4-4.7-5.6-8.4-5.5c-4.9,0.1-8.7,4.1-8.6,9s4.1,8.7,9,8.6c4.5-0.1,8.2-3.6,8.6-8h12.6c0.6,4.9,5,8.5,10,7.9
		c4.2-0.5,7.4-3.8,7.9-7.9h6.2c1.1,0,2-0.9,2-2V20.1C93.4,15.6,89.8,12,85.3,12z M45.7,44.1c-2.6,0.2-4.9-1.8-5.1-4.5
		c-0.2-2.6,1.8-4.9,4.5-5.1c0.2,0,0.4,0,0.6,0c2.6-0.2,4.9,1.8,5.1,4.5c0.2,2.6-1.8,4.9-4.5,5.1C46.1,44.2,45.9,44.2,45.7,44.1z
		 M76.2,44.1c-2.6-0.1-4.7-2.4-4.5-5c0.1-2.6,2.4-4.7,5-4.5c2.5,0.1,4.5,2.2,4.5,4.8C81.1,42.1,78.9,44.2,76.2,44.1L76.2,44.1z"/>
</g>
<g id="Line_4">
	<rect y="8.2" class="st0" width="23.3" height="1"/>
</g>
<g id="Line_5">
	<rect x="8.5" y="18.2" class="st0" width="14.8" height="1"/>
</g>
<g id="Line_6">
	<rect x="16.2" y="28.2" class="st0" width="7" height="1"/>
</g>
</svg>
