<?xml version="1.0" encoding="utf-8"?>
<!-- Generator: Adobe Illustrator 24.2.1, SVG Export Plug-In . SVG Version: 6.00 Build 0)  -->
<svg version="1.1" id="Layer_1" xmlns="http://www.w3.org/2000/svg" xmlns:xlink="http://www.w3.org/1999/xlink" x="0px" y="0px"
	 viewBox="0 0 61.7 50.9" style="enable-background:new 0 0 61.7 50.9;" xml:space="preserve">
<style type="text/css">
	.st0{fill:#FFFFFF;}
</style>
<g id="icon" transform="translate(1.5 1.5)">
	<g>
		<path class="st0" d="M17.3,27.6H6.6l-5.1,5.1V3.6c0-0.5,0.2-1,0.6-1.5c0.4-0.4,0.9-0.6,1.5-0.6c0,0,0,0,0,0h29.1l0,0
			c0.5,0,1.1,0.2,1.5,0.7c0.4,0.4,0.6,0.9,0.6,1.4v1.3h3V3.6c0-1.4-0.5-2.7-1.5-3.6c-1-1-2.3-1.5-3.7-1.5l-29,0C2.3-1.5,1-1,0,0
			c-1,0.9-1.5,2.3-1.5,3.6v36.3l9.4-9.4h9.4V27.6z"/>
	</g>
	<g>
		<path class="st0" d="M18.2,9.6H10v3h7.4C17.5,11.6,17.8,10.5,18.2,9.6z"/>
	</g>
	<g>
		<rect x="10" y="14.8" class="st0" width="7.3" height="3"/>
	</g>
	<g id="Group_63" transform="translate(22.307 9.441)">
		<g id="comment-3">
			<path class="st0" d="M37.9,39.9l-9.4-9.4H3.7C2.3,30.6,1,30,0,29c-1-0.9-1.5-2.3-1.5-3.7l0-21.8C-1.5,2.2-1,0.9,0,0
				C1-1,2.3-1.5,3.7-1.5h29c1.3,0,2.7,0.5,3.7,1.5c0.9,0.9,1.5,2.2,1.5,3.6V39.9z M29.1,27.6h0.6l5.1,5.1V3.6c0-0.5-0.2-1.1-0.6-1.4
				c-0.4-0.4-1-0.6-1.5-0.7l-29.1,0l0,0c-0.6,0-1.1,0.2-1.5,0.6C1.7,2.5,1.5,3,1.5,3.6v21.8c0,0.6,0.2,1.1,0.6,1.5
				c0.4,0.4,0.9,0.7,1.5,0.6H29.1z"/>
		</g>
		<g id="Line_7-2">
			<rect x="9.3" y="9.6" class="st0" width="17" height="3"/>
		</g>
		<g id="Line_8-2">
			<rect x="12.3" y="14.8" class="st0" width="14.1" height="3"/>
		</g>
	</g>
</g>
</svg>
