<svg xmlns="http://www.w3.org/2000/svg" width="20.459" height="22.732" viewBox="0 0 20.459 22.732">
  <path id="__TEMP__SVG__" d="M10.183,5.273h9.093V3h2.273V5.273h1.137a2.273,2.273,0,0,1,2.273,2.273V23.459a2.273,2.273,0,0,1-2.273,2.273H6.773A2.273,2.273,0,0,1,4.5,23.459V7.546A2.273,2.273,0,0,1,6.773,5.273H7.91V3h2.273ZM6.773,9.82V23.459H22.686V9.82Zm2.273,3.41H11.32V15.5H9.046Zm4.546,0h2.273V15.5H13.593Zm4.546,0h2.273V15.5H18.139Zm0,4.546h2.273v2.273H18.139Zm-4.546,0h2.273v2.273H13.593Zm-4.546,0H11.32v2.273H9.046Z" transform="translate(-4.5 -3)" fill="#0041a3" fill-rule="evenodd"/>
</svg>
