<svg xmlns="http://www.w3.org/2000/svg" width="32.511" height="30.28" viewBox="0 0 32.511 30.28">
  <g id="icon-check-green" transform="translate(-2.866 -2.864)">
    <path id="Path_269" data-name="Path 269" d="M34.546,5.954a1.125,1.125,0,0,1,0,1.593L18.8,23.3a1.125,1.125,0,0,1-1.593,0l-6.75-6.75a1.126,1.126,0,0,1,1.593-1.593L18,20.909,32.954,5.953a1.125,1.125,0,0,1,1.593,0Z" fill="#589800" stroke="#589800" stroke-width="1" fill-rule="evenodd"/>
    <path id="Path_270" data-name="Path 270" d="M18,5.625A12.375,12.375,0,1,0,30.375,18a1.125,1.125,0,0,1,2.25,0A14.625,14.625,0,1,1,25.312,5.332a1.125,1.125,0,1,1-1.125,1.946A12.312,12.312,0,0,0,18,5.625Z" fill="#589800" stroke="#589800" stroke-width="1" fill-rule="evenodd"/>
  </g>
</svg>
