<svg xmlns="http://www.w3.org/2000/svg" width="13" height="13" viewBox="0 0 13 13">
  <g id="grid-fill" transform="translate(-2.25 -2.25)">
    <path id="Path_443" data-name="Path 443" d="M2.25,3.643A1.393,1.393,0,0,1,3.643,2.25H6.429A1.393,1.393,0,0,1,7.821,3.643V6.429A1.393,1.393,0,0,1,6.429,7.821H3.643A1.393,1.393,0,0,1,2.25,6.429Zm7.429,0A1.393,1.393,0,0,1,11.071,2.25h2.786A1.393,1.393,0,0,1,15.25,3.643V6.429a1.393,1.393,0,0,1-1.393,1.393H11.071A1.393,1.393,0,0,1,9.679,6.429ZM2.25,11.071A1.393,1.393,0,0,1,3.643,9.679H6.429a1.393,1.393,0,0,1,1.393,1.393v2.786A1.393,1.393,0,0,1,6.429,15.25H3.643A1.393,1.393,0,0,1,2.25,13.857Zm7.429,0a1.393,1.393,0,0,1,1.393-1.393h2.786a1.393,1.393,0,0,1,1.393,1.393v2.786a1.393,1.393,0,0,1-1.393,1.393H11.071a1.393,1.393,0,0,1-1.393-1.393Z" transform="translate(0 0)" fill="#0166ff" fill-rule="evenodd"/>
  </g>
</svg>
