<svg id="icon-clock-white" xmlns="http://www.w3.org/2000/svg" width="17" height="17" viewBox="0 0 17 17">
  <path id="Path_141" data-name="Path 141" d="M8.5,15.938A7.438,7.438,0,1,0,1.063,8.5,7.438,7.438,0,0,0,8.5,15.938ZM17,8.5A8.5,8.5,0,1,1,8.5,0,8.5,8.5,0,0,1,17,8.5Z" transform="translate(0 0)" fill="#fff" fill-rule="evenodd"/>
  <path id="Path_142" data-name="Path 142" d="M16.1,6.75a.348.348,0,0,1,.348.348v3.623L18.7,12.012a.348.348,0,0,1-.345.6l-2.434-1.391a.348.348,0,0,1-.175-.3V7.1A.348.348,0,0,1,16.1,6.75Z" transform="translate(-7.31 -2.316)" fill="#fff" fill-rule="evenodd"/>
</svg>
