<svg xmlns="http://www.w3.org/2000/svg" width="36.197" height="64" viewBox="0 0 36.197 64">
  <g id="icon-dollar" transform="translate(2.739 3)" fill="none">
    <path d="M30.458,38.353a12.314,12.314,0,0,1-3.221,8.529A13.9,13.9,0,0,1,18.873,51.3v5.665A1,1,0,0,1,17.837,58H13.468a1.051,1.051,0,0,1-1.036-1.038V51.3a20.4,20.4,0,0,1-4.126-1,21.975,21.975,0,0,1-3.287-1.439,21.284,21.284,0,0,1-2.4-1.553q-1.1-.826-1.5-1.213a7.419,7.419,0,0,1-.567-.583.982.982,0,0,1-.064-1.328l3.333-4.369a1.007,1.007,0,0,1,.744-.388.8.8,0,0,1,.777.292l.064.064a16.894,16.894,0,0,0,7.865,4.045,11.283,11.283,0,0,0,2.4.259,7.849,7.849,0,0,0,4.612-1.392,4.53,4.53,0,0,0,1.99-3.949,3.283,3.283,0,0,0-.485-1.716,6.068,6.068,0,0,0-1.084-1.36,8.845,8.845,0,0,0-1.893-1.213q-1.294-.662-2.136-1.036t-2.589-1.052q-1.261-.517-1.99-.809T10.1,30.7q-1.263-.565-2.024-1T6.25,28.546a11.379,11.379,0,0,1-1.732-1.376A20.16,20.16,0,0,1,3.11,25.585a7.928,7.928,0,0,1-1.149-1.877,12.882,12.882,0,0,1-.68-2.152,11.339,11.339,0,0,1-.275-2.525A11.069,11.069,0,0,1,4.178,11.2a14.8,14.8,0,0,1,8.253-4.337V1.036A1,1,0,0,1,12.74.308,1,1,0,0,1,13.468,0h4.369a1,1,0,0,1,1.036,1.036v5.7a18.082,18.082,0,0,1,3.577.744,20.591,20.591,0,0,1,2.816,1.084A15.688,15.688,0,0,1,27.32,9.774q.97.678,1.261.939t.485.453a.934.934,0,0,1,.161,1.229l-2.621,4.725a.882.882,0,0,1-.744.517,1.031,1.031,0,0,1-.873-.227q-.1-.1-.469-.388t-1.261-.857a16.85,16.85,0,0,0-1.893-1.036,14.3,14.3,0,0,0-2.412-.841,10.9,10.9,0,0,0-2.768-.372,8.414,8.414,0,0,0-5.017,1.392A4.35,4.35,0,0,0,9.5,20.454a3.65,3.65,0,0,0,.955,1.344,14.137,14.137,0,0,0,1.279,1.068,11.493,11.493,0,0,0,1.812,1q1.213.567,1.957.873t2.265.889q1.716.648,2.621,1.02t2.46,1.133A19.421,19.421,0,0,1,25.3,29.16a20.973,20.973,0,0,1,2.007,1.618,8.318,8.318,0,0,1,1.716,2.056,11.733,11.733,0,0,1,1.017,2.476,10.758,10.758,0,0,1,.42,3.042Z" stroke="none"/>
    <path d="M 17.83711433410645 58 C 18.13892364501953 58 18.38702392578125 57.90281295776367 18.58142280578613 57.70840072631836 C 18.77582359313965 57.51399230957031 18.87303352355957 57.26589202880859 18.87303352355957 56.96408081054688 L 18.87303352355957 51.29958343505859 C 22.30245399475098 50.73893356323242 25.09067344665527 49.26641082763672 27.23768424987793 46.88203048706055 C 29.38470458984375 44.49765014648438 30.45820426940918 41.6546630859375 30.45820426940918 38.35304260253906 L 30.45820426940918 38.35143280029297 C 30.45713424682617 37.27202224731445 30.31697463989258 36.25812149047852 30.03772354125977 35.30974197387695 C 29.75847434997559 34.36135101318359 29.41961288452148 33.53595352172852 29.02114295959473 32.83353042602539 C 28.6226634979248 32.131103515625 28.05074310302734 31.44587135314941 27.30535316467285 30.77781105041504 C 26.55996322631836 30.1097526550293 25.89083290100098 29.57058143615723 25.29796409606934 29.16030120849609 C 24.70509338378906 28.7500114440918 23.89043426513672 28.29140281677246 22.85397338867188 27.78445243835449 C 21.81752395629883 27.27750205993652 20.99749374389648 26.89997100830078 20.39388465881348 26.6518726348877 C 19.79026412963867 26.40377235412598 18.91653442382812 26.0638313293457 17.77267456054688 25.63206100463867 C 16.75877380371094 25.24326133728027 16.00372314453125 24.94682121276855 15.50751399993896 24.74275207519531 C 15.01130390167236 24.53869247436523 14.35882377624512 24.24762153625488 13.55007362365723 23.86956214904785 C 12.74131393432617 23.49149131774902 12.13716411590576 23.15693283081055 11.73761367797852 22.8658618927002 C 11.33807373046875 22.57480239868164 10.9116735458374 22.21875190734863 10.45843410491943 21.79773139953613 C 10.00518417358398 21.37670135498047 9.686734199523926 20.92883110046387 9.503073692321777 20.4541015625 C 9.319414138793945 19.97937202453613 9.227573394775391 19.4616813659668 9.227573394775391 18.90103149414062 C 9.226503372192383 17.43388175964355 9.873613357543945 16.23633193969727 11.16891384124756 15.30835151672363 C 12.46421337127686 14.38038158416748 14.13649368286133 13.91639232635498 16.1857738494873 13.91639232635498 C 17.09226417541504 13.91747188568115 18.01487350463867 14.04152202606201 18.95358467102051 14.28855228424072 C 19.89230346679688 14.53558158874512 20.69622421264648 14.81590175628662 21.36535453796387 15.1295223236084 C 22.03448295593262 15.44315147399902 22.66548347473145 15.7884521484375 23.25835418701172 16.16544151306152 C 23.85122299194336 16.54243278503418 24.27171325683594 16.82813262939453 24.51982307434082 17.02253150939941 C 24.76792335510254 17.21693229675293 24.9241943359375 17.34635162353516 24.98864364624023 17.41079139709473 C 25.20453071594238 17.57705688476562 25.4267749786377 17.66018676757812 25.65540313720703 17.66018104553223 C 25.72364044189453 17.66018104553223 25.7924633026123 17.65277481079102 25.8618335723877 17.63796234130859 C 26.18512344360352 17.6164722442627 26.4332332611084 17.444091796875 26.60615348815918 17.12080192565918 L 29.22735404968262 12.39554214477539 C 29.48727416992188 11.96485233306885 29.43357467651367 11.55510234832764 29.06625366210938 11.16630172729492 C 28.93736457824707 11.03849220275879 28.77572441101074 10.88759231567383 28.58131408691406 10.71359157562256 C 28.38691329956055 10.53960227966309 27.96642303466797 10.22651195526123 27.31985282897949 9.774341583251953 C 26.67328453063965 9.322172164916992 25.98857307434082 8.917792320251465 25.26574325561523 8.561211585998535 C 24.54291343688965 8.204622268676758 23.60419464111328 7.843212127685547 22.44959449768066 7.476962089538574 C 21.29499435424805 7.110712051391602 20.10281372070312 6.862611770629883 18.87303352355957 6.732651710510254 L 18.87303352355957 1.035911917686462 C 18.87303352355957 0.7341119050979614 18.77582359313965 0.4860118925571442 18.58142280578613 0.2916018962860107 C 18.38702392578125 0.09720190614461899 18.13892364501953 1.9073486328125e-06 17.83711433410645 1.9073486328125e-06 L 13.46790409088135 1.9073486328125e-06 C 13.18757343292236 1.9073486328125e-06 12.94484329223633 0.1025719046592712 12.73970413208008 0.3077118992805481 C 12.53456401824951 0.512851893901825 12.43198394775391 0.7555919289588928 12.43198394775391 1.035911917686462 L 12.43198394775391 6.861531734466553 C 9.044453620910645 7.508101940155029 6.293283939361572 8.953771591186523 4.178493976593018 11.19852161407471 C 2.063703775405884 13.44327163696289 1.006303787231445 16.05427169799805 1.006303787231445 19.03152275085449 C 1.007383704185486 19.91761207580566 1.099213719367981 20.75913238525391 1.281793713569641 21.55606269836426 C 1.464383721351624 22.35301208496094 1.691003799438477 23.07047271728516 1.961663722991943 23.70845222473145 C 2.23232364654541 24.34643173217773 2.61522364616394 24.97207260131836 3.110353708267212 25.58534240722656 C 3.605493783950806 26.19862174987793 4.074843883514404 26.72705268859863 4.518433570861816 27.1706428527832 C 4.962013721466064 27.61421203613281 5.539313793182373 28.07283210754395 6.25032377243042 28.54648208618164 C 6.961343765258789 29.0201416015625 7.570323944091797 29.40304183959961 8.077273368835449 29.69518280029297 C 8.584223747253418 29.9873218536377 9.258724212646484 30.3218822479248 10.10077381134033 30.69887161254883 C 10.94282341003418 31.07586097717285 11.60658359527588 31.36155128479004 12.09205341339111 31.55595207214355 C 12.57752418518066 31.75036239624023 13.24074363708496 32.01995086669922 14.08172416687012 32.36471176147461 C 15.24598407745361 32.81689071655273 16.10897445678711 33.16757202148438 16.67070388793945 33.41674041748047 C 17.23242378234863 33.66591262817383 17.94452285766602 34.01122283935547 18.80697441101074 34.45265197753906 C 19.66943359375 34.89409255981445 20.30043411254883 35.2984619140625 20.69997406005859 35.66579055786133 C 21.09952354431152 36.03310012817383 21.46093368530273 36.48635101318359 21.78422355651855 37.02553176879883 C 22.10751342773438 37.56470108032227 22.2691535949707 38.13663101196289 22.2691535949707 38.74131011962891 C 22.27023315429688 40.44582366943359 21.60701370239258 41.76206207275391 20.27949333190918 42.69004058837891 C 18.95197296142578 43.61801147460938 17.41447448730469 44.08200073242188 15.6670036315918 44.08200073242188 C 14.86792373657227 44.08200073242188 14.06937408447266 43.99554061889648 13.27135372161865 43.8226203918457 C 10.4659538269043 43.26197052001953 7.844213962554932 41.91351318359375 5.406123638153076 39.7772331237793 L 5.341683864593506 39.71279144287109 C 5.177065372467041 39.51178741455078 4.966281414031982 39.41130447387695 4.709244251251221 39.41130447387695 C 4.662743091583252 39.41130447387695 4.61467981338501 39.41460037231445 4.5651535987854 39.42118072509766 C 4.220383644104004 39.46415328979492 3.972273826599121 39.59357070922852 3.820833683013916 39.80945205688477 L 0.4875437319278717 44.17866134643555 C 0.1631837338209152 44.61043167114258 0.1846637427806854 45.05293273925781 0.5519837141036987 45.50618362426758 C 0.6593837141990662 45.63722229003906 0.8484237194061279 45.83162307739258 1.119073748588562 46.08938217163086 C 1.389733791351318 46.34715270996094 1.891313791275024 46.75154113769531 2.623813629150391 47.30252075195312 C 3.356313705444336 47.85351181030273 4.154863834381104 48.37120056152344 5.019473552703857 48.85558319091797 C 5.884073734283447 49.33998107910156 6.97960376739502 49.81954193115234 8.30604362487793 50.29427337646484 C 9.63249397277832 50.76899337768555 11.00780391693115 51.10356140136719 12.43199348449707 51.2979736328125 L 12.43199348449707 56.96247100830078 C 12.43199348449707 57.24387359619141 12.53456401824951 57.48714065551758 12.73970413208008 57.69228363037109 C 12.94484329223633 57.89743041992188 13.18758392333984 58 13.46790409088135 58 L 17.83711433410645 58 M 17.83711433410645 61 L 13.46790409088135 61 C 12.39538383483887 61 11.38339328765869 60.57864379882812 10.61833381652832 59.81355285644531 C 9.853323936462402 59.04855346679688 9.43199348449707 58.03599166870117 9.43199348449707 56.96247100830078 L 9.43199348449707 53.76828002929688 C 8.706544876098633 53.58534622192383 7.99280309677124 53.36850738525391 7.295173645019531 53.11883163452148 C 5.797203540802002 52.58271026611328 4.573193550109863 52.0443000793457 3.553143739700317 51.47281265258789 C 2.575913667678833 50.92534255981445 1.656483769416809 50.32886123657227 0.8204337358474731 49.69998168945312 C -0.02417625859379768 49.06468200683594 -0.586706280708313 48.60768127441406 -0.9498862624168396 48.26180267333984 C -1.323376297950745 47.90610122680664 -1.575776219367981 47.64273071289062 -1.768276214599609 47.40786361694336 L -1.773526310920715 47.40146255493164 L -1.778736233711243 47.3950309753418 C -3.008896350860596 45.87709045410156 -3.060826301574707 43.90730285644531 -1.911036252975464 42.37677001953125 L -1.904356241226196 42.36787033081055 L -1.897606253623962 42.3590202331543 L 1.413004994392395 38.01953887939453 C 2.052165269851685 37.14912033081055 3.032412767410278 36.59157180786133 4.183839797973633 36.44550704956055 C 4.359184265136719 36.42280197143555 4.535872936248779 36.41130065917969 4.709243774414062 36.41130065917969 C 5.784483909606934 36.41130065917969 6.760855197906494 36.83510208129883 7.486533641815186 37.61077117919922 C 9.509288787841797 39.35813140869141 11.59530258178711 40.4283447265625 13.85926342010498 40.88079071044922 L 13.8830041885376 40.88554000854492 L 13.90667343139648 40.89066314697266 C 14.49259376525879 41.01762008666992 15.08485412597656 41.08200073242188 15.6670036315918 41.08200073242188 C 16.79519462585449 41.08200073242188 17.74173355102539 40.8037109375 18.56071281433105 40.23122024536133 C 18.99846458435059 39.92522048950195 19.26967430114746 39.56955337524414 19.2691535949707 38.74321365356445 C 19.2691535949707 38.70721054077148 19.2691535949707 38.66476058959961 19.2113037109375 38.56827163696289 C 19.03756332397461 38.27852249145508 18.85532379150391 38.04505157470703 18.66963386535645 37.87434005737305 C 18.6196231842041 37.82837295532227 18.32576370239258 37.57648086547852 17.44010353088379 37.12317276000977 C 16.63090324401855 36.70899200439453 15.96276378631592 36.38461303710938 15.45426368713379 36.15905380249023 C 14.93790340423584 35.93001174926758 14.11068344116211 35.59428024291992 12.99561405181885 35.16120147705078 L 12.96960353851318 35.15110015869141 L 12.9437837600708 35.14051055908203 C 12.11375331878662 34.80024337768555 11.45195388793945 34.53123092651367 10.97678375244141 34.3409423828125 C 10.44921398162842 34.12968063354492 9.761663436889648 33.83399200439453 8.874903678894043 33.43698120117188 C 7.931053638458252 33.01442337036133 7.180183887481689 32.64070129394531 6.579383850097656 32.29447174072266 C 6.010963916778564 31.96691131591797 5.359283924102783 31.55762100219727 4.58708381652832 31.0432014465332 C 3.70280385017395 30.45413208007812 2.986463785171509 29.88130187988281 2.397133827209473 29.29198265075684 C 1.880833745002747 28.77568244934082 1.335463762283325 28.16264152526855 0.7761537432670593 27.46989250183105 C 0.108403742313385 26.64281272888184 -0.4219162464141846 25.77148246765137 -0.8000762462615967 24.88011169433594 C -1.138066291809082 24.08343124389648 -1.421476244926453 23.19047164916992 -1.642436265945435 22.22603225708008 C -1.874166250228882 21.21457099914551 -1.992346286773682 20.14102172851562 -1.993696212768555 19.03518104553223 C -1.993696212768555 15.27817153930664 -0.6517362594604492 11.95064163208008 1.994903683662415 9.141351699829102 C 4.005852699279785 7.006832122802734 6.500146865844727 5.46137523651123 9.431983947753906 4.529143810272217 L 9.431983947753906 1.035911917686462 C 9.431983947753906 -0.03656809404492378 9.853323936462402 -1.048548102378845 10.61838340759277 -1.813608050346375 C 11.38343334197998 -2.578668117523193 12.39541339874268 -2.999998092651367 13.46790409088135 -2.999998092651367 L 17.83711433410645 -2.999998092651367 C 18.93037414550781 -2.999998092651367 19.94807434082031 -2.584388017654419 20.70274353027344 -1.829718112945557 C 21.45743370056152 -1.074988126754761 21.87303352355957 -0.05730809271335602 21.87303352355957 1.035911917686462 L 21.87303352355957 4.207000732421875 C 22.37440872192383 4.325942516326904 22.86954879760742 4.462857723236084 23.3566837310791 4.617382049560547 C 24.66779327392578 5.033281803131104 25.72640419006348 5.443272113800049 26.59299468994141 5.870781898498535 C 27.4483642578125 6.292751789093018 28.27138328552246 6.778952121734619 29.03914451599121 7.315881729125977 C 30.02364349365234 8.004371643066406 30.37155342102051 8.28978157043457 30.58203315734863 8.478172302246094 C 30.81670379638672 8.688201904296875 31.01185417175293 8.870692253112793 31.17863464355469 9.03607177734375 L 31.21336364746094 9.070522308349609 L 31.2469539642334 9.106071472167969 C 32.51674652099609 10.45011901855469 32.74296188354492 12.31877040863037 31.83165550231934 13.88523101806641 L 29.2374153137207 18.5618896484375 C 28.60657691955566 19.72270011901855 27.53624153137207 20.46013259887695 26.27433967590332 20.61148452758789 C 26.06896209716797 20.64383888244629 25.86159133911133 20.66018104553223 25.65540313720703 20.66018104553223 C 24.76288414001465 20.66018104553223 23.89933395385742 20.35844230651855 23.15812301635742 19.7875919342041 L 23.00455284118652 19.66932106018066 L 22.91864585876465 19.58342742919922 C 22.88392639160156 19.55450057983398 22.80909729003906 19.49333381652832 22.66951370239258 19.38396263122559 C 22.59255409240723 19.32366180419922 22.33891296386719 19.13593101501465 21.64861297607422 18.69699096679688 C 21.16626358032227 18.39028167724609 20.64259338378906 18.10394096374512 20.09213447570801 17.8459415435791 C 19.58972358703613 17.6104621887207 18.94977378845215 17.38969230651855 18.19010353088379 17.18977165222168 C 17.50369453430176 17.00914192199707 16.82813453674316 16.91716194152832 16.18220329284668 16.91639137268066 C 14.78556346893311 16.91639137268066 13.68547344207764 17.19588279724121 12.91606330871582 17.74709129333496 C 12.27978420257568 18.20294189453125 12.22732353210449 18.55201148986816 12.22757339477539 18.89884185791016 C 12.22757339477539 19.08736801147461 12.2522668838501 19.24568939208984 12.30096912384033 19.3715991973877 C 12.30095672607422 19.37156295776367 12.30095195770264 19.37154579162598 12.30095672607422 19.37154579162598 C 12.30126667022705 19.37154579162598 12.34256458282471 19.45329856872559 12.50019359588623 19.59972190856934 C 12.86446380615234 19.93810272216797 13.20220375061035 20.22116279602051 13.50405406951904 20.4410514831543 C 13.61393356323242 20.5211009979248 13.96215343475342 20.75059127807617 14.82052421569824 21.15185165405273 C 15.58309364318848 21.50832176208496 16.19812393188477 21.78299140930176 16.64851379394531 21.96820259094238 C 17.11942863464355 22.1618709564209 17.85673904418945 22.45125389099121 18.83999824523926 22.82833862304688 C 20.01788520812988 23.27299118041992 20.89921188354492 23.61604690551758 21.53436279296875 23.87711143493652 C 22.20423316955566 24.15244102478027 23.0670337677002 24.54903221130371 24.1721134185791 25.08954238891602 C 25.35494422912598 25.66809272766113 26.28164291381836 26.19272232055664 27.0051441192627 26.69341278076172 C 27.70774459838867 27.17962265014648 28.46089363098145 27.78489112854004 29.3076229095459 28.54377174377441 C 30.29181289672852 29.42586135864258 31.0733528137207 30.37111282348633 31.63051414489746 31.353271484375 C 32.14042282104492 32.25212097167969 32.57277297973633 33.29817199707031 32.91556549072266 34.46237182617188 C 33.27428436279297 35.68064117431641 33.45685195922852 36.98811340332031 33.45820236206055 38.34846115112305 C 33.45820236206055 42.40340042114258 32.11539459228516 45.94837188720703 29.46706390380859 48.88948059082031 C 27.4147834777832 51.16865921020508 24.86794853210449 52.77383422851562 21.87303352355957 53.68039321899414 L 21.87303352355957 56.96408081054688 C 21.87303352355957 58.05730056762695 21.45743370056152 59.07499313354492 20.70279312133789 59.82967376708984 C 19.94813346862793 60.58437347412109 18.9304141998291 61 17.83711433410645 61 Z" stroke="none" fill="#fff"/>
  </g>
</svg>
