<svg xmlns="http://www.w3.org/2000/svg" width="226.334" height="63.582" viewBox="0 0 226.334 63.582">
  <g id="logo" transform="translate(223.199 -40.98)">
    <g id="Group_1" data-name="Group 1" transform="translate(-223.18 41.098)">
      <path id="Path_1" data-name="Path 1" d="M-216.006,71.4l-7.134-.2,3.743-22.477a8.781,8.781,0,0,1,1.4-3.488,9.031,9.031,0,0,1,2.743-2.655,8,8,0,0,1,3.52-1.205,7.2,7.2,0,0,1,5.05,1.715,9.033,9.033,0,0,1,2.6,4.674l3.923,16.657,10.264-17.539a12.137,12.137,0,0,1,3.538-4.017,8.412,8.412,0,0,1,4.671-1.528A5.8,5.8,0,0,1-178,42.513a6.035,6.035,0,0,1,2.089,3.1,8.785,8.785,0,0,1,.228,4.037l-3.59,21.556h-7.167l3.655-21.948L-192.5,64.892q-.989,1.587-1.772,2.7a15,15,0,0,1-1.676,2.009,8.624,8.624,0,0,1-2.022,1.5,7.16,7.16,0,0,1-2.51.784,6.154,6.154,0,0,1-4.824-1.9,12.709,12.709,0,0,1-2.621-5.134l-4.438-15.324Z" transform="translate(223.14 -41.337)" fill="#fe0000"/>
    </g>
    <g id="Group_2" data-name="Group 2" transform="translate(-174.005 41.176)">
      <path id="Path_2" data-name="Path 2" d="M-38.019,49.334h-26.24l-2.4,14.4h26.239Zm-22.088-7.76h21.853a7.607,7.607,0,0,1,3.854.9,7.779,7.779,0,0,1,2.715,2.8,8.716,8.716,0,0,1,1.167,2.753,8.381,8.381,0,0,1-.021,3.067L-32.383,62.17a9.089,9.089,0,0,1-1.237,3.371,12.839,12.839,0,0,1-2.565,2.881,14.7,14.7,0,0,1-2.293,1.656,8.561,8.561,0,0,1-2.281.882,11.242,11.242,0,0,1-2.554.284H-66.125a9.066,9.066,0,0,1-3.845-.725,7.027,7.027,0,0,1-2.741-2.41,8.185,8.185,0,0,1-1.047-1.94,6.8,6.8,0,0,1-.4-2.009,11.631,11.631,0,0,1,.181-2.44l1.883-11.307a7.968,7.968,0,0,1,1.4-3.439A14.923,14.923,0,0,1-67.7,44.024a12.718,12.718,0,0,1,2.387-1.46,10.154,10.154,0,0,1,2.409-.764A15.658,15.658,0,0,1-60.107,41.574Z" transform="translate(74.168 -41.574)" fill="#fe0000"/>
    </g>
    <g id="Group_3" data-name="Group 3" transform="translate(-129.834 41.059)">
      <path id="Path_3" data-name="Path 3" d="M94.888,63.734l2.5-15.011H71.011l-2.5,15.011ZM59.644,71.122l4.98-29.9H96.307a12.417,12.417,0,0,1,2.972.323,6.782,6.782,0,0,1,2.356,1.078,7.969,7.969,0,0,1,1.872,1.93,8.543,8.543,0,0,1,1.278,2.851,8.315,8.315,0,0,1,.024,3.2l-1.854,11.131a9.693,9.693,0,0,1-1.193,3.4,12.936,12.936,0,0,1-2.5,2.93,12.071,12.071,0,0,1-3.749,2.459,11.949,11.949,0,0,1-4.319.715Z" transform="translate(-59.644 -41.218)" fill="#fe0000"/>
    </g>
    <g id="Group_4" data-name="Group 4" transform="translate(-83.161 40.98)">
      <path id="Path_4" data-name="Path 4" d="M215.106,40.98h31.037l-1.276,7.662H210.854l-.581,3.488h34.013l-1.293,7.76-33.811.079-.528,3.175h33.8L241.13,71.08H210.015a12.666,12.666,0,0,1-3.086-.343,6.927,6.927,0,0,1-2.394-1.087,8.215,8.215,0,0,1-1.929-2.058,8.519,8.519,0,0,1-1.382-2.871,8.08,8.08,0,0,1-.044-3.263l1.811-10.876a11.189,11.189,0,0,1,1.351-3.88,12.294,12.294,0,0,1,2.843-3.194,10.873,10.873,0,0,1,3.652-2A15.251,15.251,0,0,1,215.106,40.98Z" transform="translate(-201.037 -40.98)" fill="#fe0000"/>
    </g>
    <g id="Group_5" data-name="Group 5" transform="translate(-38.216 40.98)">
      <path id="Path_5" data-name="Path 5" d="M339.154,68.278a7.749,7.749,0,0,1-1.7-2.93,7.931,7.931,0,0,1-.119-3.577L340.8,40.98h7.735l-3.691,22.164h33.7l-1.3,7.819H344.993a7.7,7.7,0,0,1-2.085-.294,7.516,7.516,0,0,1-1.97-.872A8.733,8.733,0,0,1,339.154,68.278Z" transform="translate(-337.195 -40.98)" fill="#fe0000"/>
    </g>
    <g id="Group_6" data-name="Group 6" transform="translate(-222.132 75.059)">
      <path id="Path_6" data-name="Path 6" d="M-212.869,144.22H-198l-.734,3.72h-16.3l-.334,1.693h16.3l-.743,3.767-16.2.038-.3,1.541h16.2l-.76,3.853h-14.91a5.934,5.934,0,0,1-1.473-.166,3.181,3.181,0,0,1-1.13-.528,3.772,3.772,0,0,1-.891-1,4.006,4.006,0,0,1-.617-1.394,3.977,3.977,0,0,1,.031-1.584l1.041-5.28a5.658,5.658,0,0,1,.709-1.884,6.243,6.243,0,0,1,1.413-1.55,5.413,5.413,0,0,1,1.782-.97A7.317,7.317,0,0,1-212.869,144.22Z" transform="translate(219.966 -144.22)" fill="#0166ff"/>
    </g>
    <g id="Group_7" data-name="Group 7" transform="translate(-200.6 75.059)">
      <path id="Path_7" data-name="Path 7" d="M-153.873,157.472a3.621,3.621,0,0,1-.765-1.422,3.893,3.893,0,0,1,0-1.736l1.991-10.093h3.706l-2.123,10.759h16.149l-.749,3.8h-15.454a3.593,3.593,0,0,1-.995-.143,3.445,3.445,0,0,1-.93-.424A3.994,3.994,0,0,1-153.873,157.472Z" transform="translate(154.737 -144.22)" fill="#0166ff"/>
    </g>
    <g id="Group_8" data-name="Group 8" transform="translate(-178.931 75.059)">
      <path id="Path_8" data-name="Path 8" d="M-82,144.22h14.872l-.734,3.72h-16.3l-.334,1.693h16.3l-.743,3.767-16.2.038-.3,1.541h16.2l-.76,3.853h-14.91a5.938,5.938,0,0,1-1.473-.166,3.182,3.182,0,0,1-1.13-.528,3.778,3.778,0,0,1-.892-1,4.005,4.005,0,0,1-.616-1.394A3.965,3.965,0,0,1-89,154.161l1.041-5.28A5.644,5.644,0,0,1-87.246,147a6.231,6.231,0,0,1,1.413-1.55,5.406,5.406,0,0,1,1.782-.97A7.315,7.315,0,0,1-82,144.22Z" transform="translate(89.093 -144.22)" fill="#0166ff"/>
    </g>
    <g id="Group_9" data-name="Group 9" transform="translate(-157.403 75.116)">
      <path id="Path_9" data-name="Path 9" d="M-1.572,144.393l-.715,3.624H-18.8l-1.43,7.249H-3.717l-.715,3.624H-19.961a5.826,5.826,0,0,1-1.266-.124,2.884,2.884,0,0,1-.992-.419,3.514,3.514,0,0,1-.833-.818,4.171,4.171,0,0,1-.721-1.365,3.3,3.3,0,0,1-.019-1.546l.965-4.889a11.528,11.528,0,0,1,.334-1.313,6.573,6.573,0,0,1,.474-1.118,5.509,5.509,0,0,1,.727-1.023,5.641,5.641,0,0,1,.991-.885,5.04,5.04,0,0,1,1.224-.666,4.712,4.712,0,0,1,1.181-.281q.56-.052,1.507-.052Z" transform="translate(23.873 -144.393)" fill="#0166ff"/>
    </g>
    <g id="Group_10" data-name="Group 10" transform="translate(-133.958 75.116)">
      <path id="Path_10" data-name="Path 10" d="M47.883,144.393H68.047l-.723,3.662H59.058L56.94,158.891H53.346L55.4,148.113H47.149Z" transform="translate(-47.149 -144.393)" fill="#0166ff"/>
    </g>
    <g id="Group_11" data-name="Group 11" transform="translate(-114.118 75.135)">
      <path id="Path_11" data-name="Path 11" d="M112.872,149.854H125.3l.347-1.76H113.219Zm-2.744-5.4,15.488.019a3.209,3.209,0,0,1,2.061.633,4,4,0,0,1,1.226,1.822,3.694,3.694,0,0,1,.15,2.045,4.6,4.6,0,0,1-.428,1.242,6.425,6.425,0,0,1-.536.885q-.241.318-.348.433a4.156,4.156,0,0,1,.229.457,3.784,3.784,0,0,1,.246.87,3.038,3.038,0,0,1-.021,1.127l-.976,4.947h-3.65l1.071-5.432H112.059l-1.071,5.432h-3.734Z" transform="translate(-107.253 -144.451)" fill="#0166ff"/>
    </g>
    <g id="Group_12" data-name="Group 12" transform="translate(-91.74 75.154)">
      <path id="Path_12" data-name="Path 12" d="M192.6,148.275H180.028l-1.379,6.992h12.574Zm-10.46-3.767h10.472a3.528,3.528,0,0,1,1.833.438,3.582,3.582,0,0,1,1.256,1.36,3.609,3.609,0,0,1,.456,2.825l-1.06,5.375a4.6,4.6,0,0,1-.647,1.636,6.525,6.525,0,0,1-1.275,1.4,7.383,7.383,0,0,1-1.125.8,4.216,4.216,0,0,1-1.107.428,5.372,5.372,0,0,1-1.228.138H178.784a4.219,4.219,0,0,1-1.831-.352,3.225,3.225,0,0,1-1.275-1.17,3.829,3.829,0,0,1-.471-.942,3.282,3.282,0,0,1-.159-.975,5.785,5.785,0,0,1,.126-1.184l1.083-5.489a4.035,4.035,0,0,1,.728-1.67,7.561,7.561,0,0,1,1.479-1.432,6.352,6.352,0,0,1,1.167-.709,4.95,4.95,0,0,1,1.167-.371A7.463,7.463,0,0,1,182.141,144.508Z" transform="translate(-175.047 -144.508)" fill="#0166ff"/>
    </g>
    <g id="Group_13" data-name="Group 13" transform="translate(-70.674 74.812)">
      <path id="Path_13" data-name="Path 13" d="M241.1,146.953a4.281,4.281,0,0,1,2.74-3.14,3.74,3.74,0,0,1,1.5-.342,2.975,2.975,0,0,1,1.46.376,4.21,4.21,0,0,1,1.225,1.042l7.743,9.741,2.134-10.817h3.613l-2.091,10.6a4.893,4.893,0,0,1-2.624,3.643,3.862,3.862,0,0,1-1.719.438,3.309,3.309,0,0,1-2.712-1.427L244.6,147.4l-2.156,10.93-3.582-.057Z" transform="translate(-238.864 -143.471)" fill="#0166ff"/>
    </g>
    <g id="Group_14" data-name="Group 14" transform="translate(-49.097 75.097)">
      <path id="Path_14" data-name="Path 14" d="M311.1,144.336l-2.886,14.631h-3.979l2.886-14.631Z" transform="translate(-304.232 -144.336)" fill="#0166ff"/>
    </g>
    <g id="Group_15" data-name="Group 15" transform="translate(-42.571 75.116)">
      <path id="Path_15" data-name="Path 15" d="M346.3,144.393l-.715,3.624H329.074l-1.43,7.249h16.515l-.715,3.624H327.914a5.828,5.828,0,0,1-1.266-.124,2.887,2.887,0,0,1-.992-.419,3.513,3.513,0,0,1-.833-.818,4.159,4.159,0,0,1-.721-1.365,3.292,3.292,0,0,1-.019-1.546l.965-4.889a11.531,11.531,0,0,1,.334-1.313,6.6,6.6,0,0,1,.474-1.118,5.508,5.508,0,0,1,.727-1.023,5.64,5.64,0,0,1,.991-.885,5.042,5.042,0,0,1,1.225-.666,4.705,4.705,0,0,1,1.181-.281q.559-.052,1.507-.052Z" transform="translate(-324.002 -144.393)" fill="#0166ff"/>
    </g>
    <g id="Group_16" data-name="Group 16" transform="translate(-20.513 75.116)">
      <path id="Path_16" data-name="Path 16" d="M408.67,149.815a4.231,4.231,0,0,1,2.259.609,3.57,3.57,0,0,1,1.448,1.674,3.887,3.887,0,0,1,.207,2.331,4.975,4.975,0,0,1-.736,1.755,5.977,5.977,0,0,1-1.343,1.432,6.2,6.2,0,0,1-1.735.947,5.55,5.55,0,0,1-1.852.328l-16.094.057.73-3.7h17.2l.342-1.732H395.835a4.534,4.534,0,0,1-1.745-.333,3.805,3.805,0,0,1-1.371-.947,3.453,3.453,0,0,1-.793-1.451,3.864,3.864,0,0,1-.041-1.788,4.644,4.644,0,0,1,.8-1.826,5.9,5.9,0,0,1,1.481-1.441,7.129,7.129,0,0,1,1.883-.913,6.752,6.752,0,0,1,2.043-.319l15.513-.1-.719,3.644-16.931.019-.347,1.76Z" transform="translate(-390.823 -144.393)" fill="#0166ff"/>
    </g>
    <g id="Group_17" data-name="Group 17" transform="translate(-42.123 93.152)">
      <path id="Path_17" data-name="Path 17" d="M330.359,199.031l-1.884,11.33h-3.117l1.884-11.33Z" transform="translate(-325.358 -199.031)" fill="#fe0000"/>
    </g>
    <g id="Group_18" data-name="Group 18" transform="translate(-37.551 92.931)">
      <path id="Path_18" data-name="Path 18" d="M340.667,201.058a3.181,3.181,0,0,1,2.066-2.431,2.89,2.89,0,0,1,1.169-.265,2.411,2.411,0,0,1,1.154.291,3.45,3.45,0,0,1,.987.807L352.359,207l1.393-8.376h2.83l-1.365,8.206a3.632,3.632,0,0,1-1.961,2.821,2.987,2.987,0,0,1-1.336.339,2.7,2.7,0,0,1-2.161-1.1l-6.334-7.484-1.408,8.464-2.808-.044Z" transform="translate(-339.209 -198.362)" fill="#fe0000"/>
    </g>
    <g id="Group_19" data-name="Group 19" transform="translate(-20.139 93.167)">
      <path id="Path_19" data-name="Path 19" d="M409.146,199.076l-.467,2.806H395.741l-.934,5.613h12.937l-.467,2.806H395.113a4.674,4.674,0,0,1-.995-.1,2.372,2.372,0,0,1-.788-.324,2.886,2.886,0,0,1-.674-.633,3.354,3.354,0,0,1-.6-1.057,2.535,2.535,0,0,1-.054-1.2l.63-3.786a8.779,8.779,0,0,1,.228-1.017,4.912,4.912,0,0,1,.343-.866,4.057,4.057,0,0,1,.543-.792,4.182,4.182,0,0,1,.753-.685,3.815,3.815,0,0,1,.942-.516,3.64,3.64,0,0,1,.918-.217q.437-.041,1.179-.041Z" transform="translate(-391.957 -199.076)" fill="#fe0000"/>
    </g>
    <g id="Group_20" data-name="Group 20" transform="translate(-3.524 101.358)">
      <path id="Path_20" data-name="Path 20" d="M442.292,226.926l.5-3.035h3.234l-.5,3.035Z" transform="translate(-442.292 -223.891)" fill="#fe0000"/>
    </g>
    <g id="Group_21" data-name="Group 21" transform="translate(-223.199 40.98)">
      <path id="Path_21" data-name="Path 21" d="M-216.045,71.4l-7.154-.2,3.743-22.477a8.773,8.773,0,0,1,1.406-3.488,9.033,9.033,0,0,1,2.75-2.655,8.023,8.023,0,0,1,3.529-1.206,7.2,7.2,0,0,1,5.048,1.715,9.038,9.038,0,0,1,2.6,4.673l3.919,16.657,10.259-17.539a12.137,12.137,0,0,1,3.536-4.018,8.41,8.41,0,0,1,4.667-1.528,5.833,5.833,0,0,1,3.691,1.176,6.041,6.041,0,0,1,2.1,3.1,8.767,8.767,0,0,1,.23,4.037l-3.59,21.556H-186.5l3.655-21.948-9.708,15.638q-.989,1.587-1.771,2.7A15,15,0,0,1-196,69.605a8.6,8.6,0,0,1-2.02,1.5,7.154,7.154,0,0,1-2.508.784,6.148,6.148,0,0,1-4.82-1.9,12.7,12.7,0,0,1-2.618-5.134L-212.4,49.529Z" transform="translate(223.199 -41.219)" fill="#fe0000"/>
      <path id="Path_22" data-name="Path 22" d="M-60.107,41.575h21.853a7.608,7.608,0,0,1,3.854.9,7.788,7.788,0,0,1,2.715,2.8,8.712,8.712,0,0,1,1.167,2.753,8.381,8.381,0,0,1-.021,3.067l-1.844,11.072a9.09,9.09,0,0,1-1.237,3.371,12.841,12.841,0,0,1-2.566,2.881,14.69,14.69,0,0,1-2.292,1.656,8.558,8.558,0,0,1-2.282.882,11.221,11.221,0,0,1-2.554.284H-66.125a9.068,9.068,0,0,1-3.844-.725,7.022,7.022,0,0,1-2.741-2.41,8.189,8.189,0,0,1-1.048-1.94,6.79,6.79,0,0,1-.4-2.009,11.655,11.655,0,0,1,.181-2.44l1.883-11.307a7.964,7.964,0,0,1,1.405-3.439A14.928,14.928,0,0,1-67.7,44.025a12.737,12.737,0,0,1,2.388-1.46,10.137,10.137,0,0,1,2.408-.765A15.687,15.687,0,0,1-60.107,41.575Zm22.092,7.741h-26.24l-2.4,14.423h26.24Z" transform="translate(123.362 -41.379)" fill="#fe0000"/>
      <path id="Path_23" data-name="Path 23" d="M59.584,71.123l4.98-29.9h31.7a12.427,12.427,0,0,1,2.973.324,6.8,6.8,0,0,1,2.358,1.077,8.005,8.005,0,0,1,1.873,1.931,8.545,8.545,0,0,1,1.278,2.851,8.322,8.322,0,0,1,.025,3.2l-1.853,11.131a9.685,9.685,0,0,1-1.194,3.4,12.92,12.92,0,0,1-2.506,2.93,10.722,10.722,0,0,1-8.071,3.175Zm35.263-7.388,2.5-15.01H70.971l-2.5,15.01Z" transform="translate(33.761 -41.14)" fill="#fe0000"/>
      <path id="Path_24" data-name="Path 24" d="M215.052,40.981H246.1l-1.276,7.662H210.813l-.581,3.488h34.014l-1.29,7.741-33.811.078-.529,3.175h33.8l-1.325,7.956H209.96a12.672,12.672,0,0,1-3.087-.343,6.93,6.93,0,0,1-2.4-1.087,8.2,8.2,0,0,1-1.93-2.058,8.493,8.493,0,0,1-1.383-2.871,8.066,8.066,0,0,1-.044-3.263l1.811-10.876a11.193,11.193,0,0,1,1.352-3.88,12.291,12.291,0,0,1,2.843-3.194,10.879,10.879,0,0,1,3.653-2A15.251,15.251,0,0,1,215.052,40.981Z" transform="translate(-60.959 -40.981)" fill="#fe0000"/>
      <path id="Path_25" data-name="Path 25" d="M339.153,68.279a7.743,7.743,0,0,1-1.7-2.93,7.922,7.922,0,0,1-.119-3.577L340.8,40.981h7.735l-3.691,22.164h33.7l-1.3,7.819H344.992a7.685,7.685,0,0,1-2.085-.294,7.5,7.5,0,0,1-1.969-.872A8.708,8.708,0,0,1,339.153,68.279Z" transform="translate(-152.211 -40.981)" fill="#fe0000"/>
    </g>
    <g id="Group_22" data-name="Group 22" transform="translate(-222.141 74.812)">
      <path id="Path_26" data-name="Path 26" d="M-212.893,144.221h14.879l-.734,3.72h-16.3l-.334,1.693h16.3l-.741,3.757-16.2.038-.3,1.541h16.2l-.762,3.862h-14.917a5.941,5.941,0,0,1-1.474-.166,3.18,3.18,0,0,1-1.13-.528,3.769,3.769,0,0,1-.892-1,3.987,3.987,0,0,1-.617-1.393,3.97,3.97,0,0,1,.031-1.584l1.041-5.28a5.656,5.656,0,0,1,.71-1.884,6.234,6.234,0,0,1,1.414-1.55,5.4,5.4,0,0,1,1.783-.97A7.3,7.3,0,0,1-212.893,144.221Z" transform="translate(219.992 -143.974)" fill="#0166ff"/>
      <path id="Path_27" data-name="Path 27" d="M-153.871,157.472a3.616,3.616,0,0,1-.765-1.422,3.889,3.889,0,0,1,0-1.736l1.991-10.093h3.706l-2.123,10.759h16.149l-.749,3.8h-15.454a3.583,3.583,0,0,1-.995-.143,3.425,3.425,0,0,1-.93-.424A3.974,3.974,0,0,1-153.871,157.472Z" transform="translate(176.276 -143.974)" fill="#0166ff"/>
      <path id="Path_28" data-name="Path 28" d="M-82.02,144.221h14.879l-.734,3.72h-16.3l-.334,1.693h16.3l-.741,3.757-16.2.038-.3,1.541h16.2l-.762,3.862H-84.941a5.941,5.941,0,0,1-1.474-.166,3.179,3.179,0,0,1-1.13-.528,3.77,3.77,0,0,1-.892-1,3.994,3.994,0,0,1-.617-1.393,3.97,3.97,0,0,1,.031-1.584l1.041-5.28a5.65,5.65,0,0,1,.71-1.884,6.226,6.226,0,0,1,1.413-1.55,5.4,5.4,0,0,1,1.783-.97A7.3,7.3,0,0,1-82.02,144.221Z" transform="translate(132.32 -143.974)" fill="#0166ff"/>
      <path id="Path_29" data-name="Path 29" d="M-1.571,144.394l-.715,3.624H-18.8l-1.43,7.249H-3.716l-.715,3.624H-19.96a5.823,5.823,0,0,1-1.266-.124,2.885,2.885,0,0,1-.992-.419,3.508,3.508,0,0,1-.833-.818,4.143,4.143,0,0,1-.72-1.365,3.285,3.285,0,0,1-.019-1.546l.965-4.89a11.61,11.61,0,0,1,.334-1.312,6.584,6.584,0,0,1,.474-1.118,5.491,5.491,0,0,1,.727-1.023,5.644,5.644,0,0,1,.991-.885,5.033,5.033,0,0,1,1.224-.666,4.72,4.72,0,0,1,1.181-.281q.559-.051,1.507-.052Z" transform="translate(88.61 -144.09)" fill="#0166ff"/>
      <path id="Path_30" data-name="Path 30" d="M47.885,144.394H68.049l-.723,3.662H59.06l-2.119,10.835H53.348L55.4,148.113H47.151Z" transform="translate(41.032 -144.09)" fill="#0166ff"/>
      <path id="Path_31" data-name="Path 31" d="M110.13,144.451l15.488.019a3.21,3.21,0,0,1,2.061.633,4.008,4.008,0,0,1,1.227,1.822,3.694,3.694,0,0,1,.15,2.045,4.606,4.606,0,0,1-.428,1.242,6.448,6.448,0,0,1-.535.885c-.161.212-.277.357-.348.432a4.205,4.205,0,0,1,.229.457,3.8,3.8,0,0,1,.246.87,3.038,3.038,0,0,1-.021,1.127l-.976,4.947h-3.65l1.072-5.432H112.061l-1.072,5.432h-3.734Zm2.743,5.4h12.433l.347-1.76H113.221Z" transform="translate(0.768 -144.128)" fill="#0166ff"/>
      <path id="Path_32" data-name="Path 32" d="M182.144,144.508h10.472a3.532,3.532,0,0,1,1.832.438,3.583,3.583,0,0,1,1.256,1.36,3.608,3.608,0,0,1,.456,2.825l-1.06,5.375a4.591,4.591,0,0,1-.646,1.636,6.525,6.525,0,0,1-1.275,1.4,7.453,7.453,0,0,1-1.125.8,4.187,4.187,0,0,1-1.107.428,5.351,5.351,0,0,1-1.228.138H178.787a4.218,4.218,0,0,1-1.831-.352,3.227,3.227,0,0,1-1.275-1.17,3.807,3.807,0,0,1-.471-.942,3.267,3.267,0,0,1-.16-.975,5.765,5.765,0,0,1,.126-1.185l1.083-5.489a4.035,4.035,0,0,1,.728-1.67,7.573,7.573,0,0,1,1.479-1.432,6.379,6.379,0,0,1,1.168-.709,4.958,4.958,0,0,1,1.166-.371A7.492,7.492,0,0,1,182.144,144.508Zm10.462,3.758H180.033l-1.381,7h12.574Z" transform="translate(-44.648 -144.166)" fill="#0166ff"/>
      <path id="Path_33" data-name="Path 33" d="M241.1,146.953a4.283,4.283,0,0,1,2.74-3.14,3.739,3.739,0,0,1,1.5-.342,2.975,2.975,0,0,1,1.46.376,4.219,4.219,0,0,1,1.226,1.041l7.743,9.741,2.134-10.817h3.612l-2.091,10.6a4.893,4.893,0,0,1-2.623,3.644,3.864,3.864,0,0,1-1.719.437,3.308,3.308,0,0,1-2.712-1.427l-7.767-9.665-2.156,10.93-3.583-.057Z" transform="translate(-87.4 -143.472)" fill="#0166ff"/>
      <path id="Path_34" data-name="Path 34" d="M311.1,144.337l-2.886,14.631h-3.978l2.886-14.631Z" transform="translate(-131.19 -144.051)" fill="#0166ff"/>
      <path id="Path_35" data-name="Path 35" d="M346.3,144.394l-.715,3.624H329.076l-1.43,7.249H344.16l-.715,3.624H327.916a5.823,5.823,0,0,1-1.266-.124,2.885,2.885,0,0,1-.992-.419,3.507,3.507,0,0,1-.833-.818,4.142,4.142,0,0,1-.72-1.365,3.28,3.28,0,0,1-.019-1.546l.965-4.89a11.613,11.613,0,0,1,.334-1.312,6.61,6.61,0,0,1,.474-1.118,5.507,5.507,0,0,1,.727-1.023,5.641,5.641,0,0,1,.991-.885,5.031,5.031,0,0,1,1.224-.666,4.718,4.718,0,0,1,1.181-.281q.559-.051,1.507-.052Z" transform="translate(-144.433 -144.09)" fill="#0166ff"/>
      <path id="Path_36" data-name="Path 36" d="M408.672,149.816a4.227,4.227,0,0,1,2.258.609,3.567,3.567,0,0,1,1.448,1.674,3.883,3.883,0,0,1,.207,2.33,4.962,4.962,0,0,1-.735,1.755,5.992,5.992,0,0,1-1.343,1.432,6.2,6.2,0,0,1-1.735.946,5.55,5.55,0,0,1-1.852.328l-16.094.057.73-3.7h17.2l.342-1.731H395.838a4.52,4.52,0,0,1-1.745-.333,3.805,3.805,0,0,1-1.371-.946,3.452,3.452,0,0,1-.793-1.451,3.862,3.862,0,0,1-.042-1.788,4.649,4.649,0,0,1,.8-1.827,5.887,5.887,0,0,1,1.48-1.441,7.153,7.153,0,0,1,1.884-.913,6.76,6.76,0,0,1,2.043-.319l15.512-.1-.719,3.644-16.931.019-.347,1.76Z" transform="translate(-189.197 -144.09)" fill="#0166ff"/>
    </g>
    <g id="Group_23" data-name="Group 23" transform="translate(-42.124 92.93)">
      <path id="Path_37" data-name="Path 37" d="M330.357,199.03l-1.884,11.329h-3.117l1.884-11.329Z" transform="translate(-325.356 -198.809)" fill="#fe0000"/>
      <path id="Path_38" data-name="Path 38" d="M340.665,201.056a3.181,3.181,0,0,1,2.065-2.431,2.9,2.9,0,0,1,1.169-.265,2.408,2.408,0,0,1,1.153.291,3.451,3.451,0,0,1,.987.807L352.356,207l1.393-8.376h2.83l-1.365,8.206a3.631,3.631,0,0,1-1.961,2.821,2.988,2.988,0,0,1-1.335.339,2.7,2.7,0,0,1-2.161-1.1l-6.334-7.484-1.408,8.464-2.808-.044Z" transform="translate(-334.635 -198.36)" fill="#fe0000"/>
      <path id="Path_39" data-name="Path 39" d="M409.143,199.074l-.467,2.807H395.739l-.933,5.613h12.937l-.467,2.806H395.111a4.67,4.67,0,0,1-.995-.1,2.376,2.376,0,0,1-.788-.324,2.887,2.887,0,0,1-.674-.634,3.344,3.344,0,0,1-.6-1.057,2.526,2.526,0,0,1-.055-1.2l.63-3.787a8.691,8.691,0,0,1,.228-1.016,4.931,4.931,0,0,1,.342-.866,4.1,4.1,0,0,1,.543-.792,4.187,4.187,0,0,1,.753-.685,3.82,3.82,0,0,1,.942-.516,3.651,3.651,0,0,1,.918-.217q.437-.041,1.179-.041Z" transform="translate(-369.97 -198.838)" fill="#fe0000"/>
      <path id="Path_40" data-name="Path 40" d="M442.289,226.924l.5-3.035h3.234l-.5,3.035Z" transform="translate(-403.69 -215.462)" fill="#fe0000"/>
    </g>
    <g id="Group_24" data-name="Group 24" transform="translate(-221.329 92.579)">
      <rect id="Rectangle_1" data-name="Rectangle 1" width="176.727" height="3.17" fill="#fe0000"/>
    </g>
  </g>
</svg>
